<?xml version="1.0" encoding="UTF-8" standalone="no"?>
<!-- Created with Inkscape (http://www.inkscape.org/) -->

<svg
   xmlns:dc="http://purl.org/dc/elements/1.1/"
   xmlns:cc="http://creativecommons.org/ns#"
   xmlns:rdf="http://www.w3.org/1999/02/22-rdf-syntax-ns#"
   xmlns:svg="http://www.w3.org/2000/svg"
   xmlns="http://www.w3.org/2000/svg"
   xmlns:sodipodi="http://sodipodi.sourceforge.net/DTD/sodipodi-0.dtd"
   xmlns:inkscape="http://www.inkscape.org/namespaces/inkscape"
   width="72mm"
   height="16mm"
   viewBox="0 0 72 16"
   version="1.1"
   id="svg278721"
   inkscape:version="0.92.4 (5da689c313, 2019-01-14)"
   sodipodi:docname="logo-inv.svg">
  <defs
     id="defs278715" />
  <sodipodi:namedview
     id="base"
     pagecolor="#ffffff"
     bordercolor="#666666"
     borderopacity="1.0"
     inkscape:pageopacity="0.0"
     inkscape:pageshadow="2"
     inkscape:zoom="1.18125"
     inkscape:cx="33.209374"
     inkscape:cy="101.28932"
     inkscape:document-units="mm"
     inkscape:current-layer="layer1"
     showgrid="false"
     inkscape:window-width="1920"
     inkscape:window-height="1017"
     inkscape:window-x="-8"
     inkscape:window-y="-8"
     inkscape:window-maximized="1"
     units="mm" />
  <metadata
     id="metadata278718">
    <rdf:RDF>
      <cc:Work
         rdf:about="">
        <dc:format>image/svg+xml</dc:format>
        <dc:type
           rdf:resource="http://purl.org/dc/dcmitype/StillImage" />
        <dc:title></dc:title>
      </cc:Work>
    </rdf:RDF>
  </metadata>
  <g
     inkscape:label="Capa 1"
     inkscape:groupmode="layer"
     id="layer1"
     transform="translate(0,-281)">
    <g
       aria-label="Pa'l Negocio"
       transform="matrix(0.52020258,0,0,0.52020258,-68.752079,-245.25502)"
       style="font-style:normal;font-variant:normal;font-weight:normal;font-stretch:normal;font-size:26.66666794px;line-height:1.25;font-family:'Sexy Beauty';-inkscape-font-specification:'Sexy Beauty';font-variant-ligatures:normal;font-variant-caps:normal;font-variant-numeric:normal;font-feature-settings:normal;text-align:start;letter-spacing:0.01px;word-spacing:0px;writing-mode:lr-tb;text-anchor:start;fill:#ffffff;fill-opacity:1;stroke:none"
       id="flowRoot3131-6-5-8-7-97-7">
      <path
         d="m 169.92298,1029.9016 0.21333,-0.3467 q 0.45334,-1.0933 0.93334,-2.16 0.50666,-1.0933 1.01333,-2.1867 0.42667,-0.9066 0.88,-1.7866 0.48,-0.88 1.01333,-1.7334 0.45334,-0.72 0.96,-1.3866 0.53334,-0.6667 1.09334,-1.3334 0.88,-0.96 1.94666,-1.5733 0.13334,-0.08 0.4,-0.1867 0.29334,-0.1333 0.58667,-0.24 0.32,-0.1333 0.61333,-0.24 0.29334,-0.1066 0.45334,-0.16 0.4,-0.1066 0.77333,-0.1066 0.37333,0 0.72,0.1866 0.50667,0.2667 0.61333,0.72 0.16,0.5867 0.08,1.2267 -0.0533,0.2133 -0.10666,0.4267 -0.0533,0.1866 -0.13334,0.4 -0.42666,1.36 -1.06666,2.64 -0.64,1.2533 -1.49334,2.48 -0.45333,0.6133 -0.90666,1.2266 -0.42667,0.5867 -0.96,1.1734 -0.29334,0.32 -0.72,0.6666 -0.4,0.3467 -0.88,0.6934 -0.45334,0.32 -0.93334,0.6133 -0.45333,0.2667 -0.85333,0.48 -0.18667,0.1333 -0.4,0.24 -0.21333,0.08 -0.42667,0.16 -0.29333,0.1333 -0.56,0.053 -0.21333,-0.053 -0.29333,-0.1866 -0.08,-0.16 0.0267,-0.3467 0.13333,-0.16 0.4,-0.3467 0.18666,-0.16 0.4,-0.32 0.24,-0.16 0.45333,-0.3466 0.56,-0.4534 1.14667,-0.9867 0.61333,-0.5333 1.17333,-1.12 0.58667,-0.5867 1.06667,-1.2 0.50666,-0.6133 0.85333,-1.2267 0.53333,-0.9333 0.96,-1.8933 0.42667,-0.96 0.64,-1.9733 0.08,-0.32 0.10667,-0.64 0.0267,-0.3467 0.08,-0.6934 0,-0.1333 -0.0267,-0.24 0,-0.1333 -0.13333,-0.1866 -0.08,-0.027 -0.26667,0.027 -0.18667,0.027 -0.4,0.1067 -0.21333,0.08 -0.4,0.16 -0.16,0.08 -0.21333,0.1333 -0.61334,0.4534 -1.2,0.96 -0.58667,0.5067 -1.04,1.12 -0.32,0.4267 -0.61334,0.8534 -0.29333,0.4 -0.58666,0.8533 -0.64,1.0133 -1.2,2.0533 -0.53334,1.04 -1.01334,2.1334 -0.37333,0.88 -0.77333,1.76 -0.37333,0.88 -0.77333,1.76 -0.82667,1.76 -1.38667,3.4666 -0.56,1.7067 -1.09333,3.3067 -0.10667,0.2667 -0.29334,0.48 -0.24,0.32 -0.66666,0.32 -0.21334,-0.027 -0.34667,-0.16 -0.10667,-0.1067 -0.16,-0.2667 -0.08,-0.1866 -0.08,-0.3733 -0.0267,-1.3867 0.10667,-2.9867 0.13333,-1.6 0.37333,-3.2533 0.24,-1.68 0.56,-3.3333 0.32,-1.6534 0.66667,-3.1467 0.34666,-1.4933 0.8,-2.9067 0.48,-1.44 1.04,-2.88 0.10666,-0.24 0.21333,-0.48 0.13333,-0.2666 0.26667,-0.5066 0.0533,-0.1334 0.13333,-0.2667 0.10667,-0.1333 0.18667,-0.2667 0.4,-0.48 1.06666,-0.4 0.29334,0.053 0.48,0.2667 0.18667,0.2133 0.18667,0.5067 0.0533,0.2933 0,0.56 -0.0533,0.24 -0.13333,0.5333 l -1.04,3.1467 -1.01334,3.4133 q -0.34666,1.12 -0.58666,2.2133 -0.24,1.0934 -0.45334,2.2134 -0.0533,0.16 -0.08,0.32 -0.0267,0.16 -0.0533,0.32 z"
         style="font-style:normal;font-variant:normal;font-weight:normal;font-stretch:normal;font-size:26.66666794px;font-family:'Sexy Beauty';-inkscape-font-specification:'Sexy Beauty';text-align:center;text-anchor:middle;fill:#ffffff;fill-opacity:1"
         id="path60591"
         inkscape:connector-curvature="0" />
      <path
         d="m 184.62006,1029.2882 -0.26666,0.32 -2.58667,3.28 q -0.24,0.2934 -0.48,0.5867 -0.24,0.2933 -0.48,0.5867 -0.18667,0.1866 -0.37333,0.3733 -0.16,0.16 -0.34667,0.32 -0.32,0.2933 -0.74667,0.4 -0.98666,0.3733 -1.49333,-0.4533 -0.21333,-0.2934 -0.26667,-0.72 0,-0.2134 -0.0267,-0.4534 0,-0.24 0.0267,-0.4533 0.29334,-2.8 1.97334,-5.2 1.30666,-1.8133 3.28,-2.8267 0.66666,-0.3466 1.41333,-0.56 0.53333,-0.1333 1.09333,-0.08 0.98667,0.053 1.44,0.72 l 0.10667,0.1067 q 0.08,0 0.13333,0 0.08,-0.027 0.16,-0.027 0.24,0 0.34667,0.053 0.58667,0.1866 0.45333,0.6933 -0.0533,0.2667 -0.13333,0.5067 -0.0533,0.24 -0.16,0.5066 -0.24,0.5867 -0.45333,1.2 -0.21334,0.5867 -0.4,1.2 -0.21334,0.6934 -0.34667,1.4134 -0.13333,0.72 -0.26667,1.44 l -0.26666,1.68 q -0.08,0.4266 -0.29334,0.96 l -0.10666,0.2133 q -0.16,0.2133 -0.4,0.24 -0.24,0.027 -0.42667,-0.1067 -0.16,-0.1333 -0.29333,-0.2666 -0.10667,-0.1334 -0.13334,-0.32 -0.0533,-0.2667 -0.10666,-0.5067 -0.0267,-0.24 -0.0267,-0.5067 0,-0.72 0.08,-1.44 0.08,-0.7466 0.21333,-1.4666 l 0.26667,-1.4134 z m -4.69333,4.0534 q 0.18667,-0.1334 0.26667,-0.2667 0.10666,-0.16 0.24,-0.2933 l 2.66666,-3.3867 q 0.32,-0.3733 0.64,-0.7467 0.32,-0.3733 0.66667,-0.7466 0.32,-0.4534 0.64,-0.7467 0.34667,-0.32 0.74667,-0.7467 0.13333,-0.2933 -0.08,-0.5066 -0.32,-0.2934 -0.72,-0.2134 -0.13334,0.053 -0.26667,0.1067 -0.10667,0.027 -0.24,0.08 -0.48,0.2133 -0.90667,0.5067 -0.42666,0.2666 -0.8,0.64 -0.42666,0.4 -0.82666,0.8266 -1.76,1.9734 -2.13334,4.5334 -0.0267,0.1866 -0.0267,0.3733 0.0267,0.1867 0.0267,0.3733 z"
         style="font-style:normal;font-variant:normal;font-weight:normal;font-stretch:normal;font-size:26.66666794px;font-family:'Sexy Beauty';-inkscape-font-specification:'Sexy Beauty';text-align:center;text-anchor:middle;fill:#ffffff;fill-opacity:1"
         id="path60593"
         inkscape:connector-curvature="0" />
      <path
         d="m 192.66194,1014.8145 -0.5599,7.539 h -1.77083 l -0.5599,-7.539 z"
         style="font-style:normal;font-variant:normal;font-weight:normal;font-stretch:normal;font-size:26.66666794px;font-family:'Sexy Beauty';-inkscape-font-specification:'Sexy Beauty';text-align:center;text-anchor:middle;fill:#ffffff;fill-opacity:1"
         id="path60595"
         inkscape:connector-curvature="0" />
      <path
         d="m 196.1934,1027.7949 q 0.18666,-1.04 0.45333,-2.24 0.29333,-1.2 0.61333,-2.3733 0.34667,-1.2 0.72,-2.2934 0.37334,-1.12 0.77334,-2 0.4,-0.88 0.82666,-1.44 0.42667,-0.5866 0.85334,-0.72 0.32,-0.08 0.56,0.053 0.26666,0.1066 0.37333,0.4 0.0533,0.08 0.0533,0.1866 0,0.1067 0.0267,0.2134 -0.0533,0.2933 -0.34667,1.0133 -0.26666,0.72 -0.72,1.92 -0.42666,1.2 -0.96,2.9067 -0.53333,1.7066 -1.09333,4 -0.42667,1.9733 -0.82667,3.7066 -0.37333,1.7067 -0.58666,3.44 l -0.32,2.7734 q 0,0.08 -0.0267,0.16 -0.0267,0.08 -0.0533,0.16 -0.0533,0.2133 -0.34667,0.16 -0.32,-0.053 -0.4,-0.3467 -0.0533,-0.2133 -0.13333,-0.4533 -0.0533,-0.24 -0.10667,-0.48 -0.13333,-1.2 -0.13333,-2.2667 0.0267,-1.0933 0.13333,-2.1333 0.13333,-1.0667 0.29333,-2.1067 0.18667,-1.0667 0.37334,-2.24 z"
         style="font-style:normal;font-variant:normal;font-weight:normal;font-stretch:normal;font-size:26.66666794px;font-family:'Sexy Beauty';-inkscape-font-specification:'Sexy Beauty';text-align:center;text-anchor:middle;fill:#ffffff;fill-opacity:1"
         id="path60597"
         inkscape:connector-curvature="0" />
      <path
         d="m 215.83381,1021.1282 q -0.13333,0.053 -0.24,0.1867 -0.08,0.1067 -0.16,0.2133 -0.8,1.12 -1.54666,2.2667 -0.74667,1.12 -1.41334,2.32 -0.8,1.36 -1.49333,2.6667 -0.66667,1.28 -1.30667,2.56 -0.64,1.28 -1.25333,2.5866 -0.58667,1.3067 -1.2,2.7467 -0.08,0.2133 -0.26667,0.4533 -0.26666,0.2934 -0.61333,0.2667 -0.34667,-0.027 -0.53333,-0.3467 -0.0533,-0.1333 -0.10667,-0.2666 -0.0533,-0.1067 -0.0533,-0.24 -0.10667,-0.8 -0.16,-1.4934 -0.0533,-0.72 -0.08,-1.3866 0,-0.6667 0.0267,-1.3334 0.0533,-0.6933 0.16,-1.4933 0.13334,-0.88 0.29334,-1.76 0.16,-0.88 0.32,-1.7333 0.13333,-0.6667 0.26666,-1.3067 0.13334,-0.6667 0.29334,-1.3067 0.37333,-1.52 0.88,-2.96 0.53333,-1.4666 1.28,-2.9066 l 0.45333,-0.8534 q 0.13333,-0.2133 0.29333,-0.3733 0.18667,-0.1867 0.4,-0.3733 0.24,-0.2134 0.66667,-0.1867 0.45333,0 0.66667,0.32 0.24,0.3733 0.16,0.72 -0.0267,0.2933 -0.10667,0.56 -0.0533,0.2667 -0.16,0.5333 l -1.25333,3.0667 q -0.42667,1.12 -0.77334,2.24 -0.32,1.0933 -0.61333,2.2133 -0.37333,1.2534 -0.61333,2.5067 -0.21334,1.2267 -0.4,2.48 -0.0533,0.32 -0.08,0.64 -0.0267,0.32 -0.08,0.64 0,0.027 0,0.053 0.0267,0.027 0.0267,0.053 0.13334,0 0.13334,-0.053 0.0267,-0.08 0.08,-0.1333 l 1.6,-3.3333 q 0.77333,-1.52 1.6,-3.0134 0.82666,-1.52 1.76,-2.9866 0.37333,-0.5334 0.69333,-1.04 0.34667,-0.5334 0.72,-1.0667 1.01333,-1.4667 2.32,-2.6933 0.26667,-0.24 0.53334,-0.48 0.29333,-0.24 0.58666,-0.4534 0.24,-0.2133 0.56,-0.2933 0.32,-0.1333 0.58667,-0.027 0.26667,0.08 0.4,0.3734 0.0533,0.1333 0.08,0.2933 0.0267,0.16 0,0.2933 0,0.4534 -0.10667,0.88 -0.10666,0.4267 -0.26666,0.8534 -0.37334,0.9333 -0.74667,1.8666 -0.34667,0.9334 -0.66667,1.8934 -0.34666,0.96 -0.66666,1.9466 -0.32,0.96 -0.61334,1.9467 -0.37333,1.36 -0.64,2.5867 -0.24,1.2266 -0.4,2.4 -0.16,1.1733 -0.29333,2.3466 -0.10667,1.2 -0.21334,2.48 0,0.027 -0.0267,0.053 0,0.027 0,0.053 -0.0533,0.1067 -0.08,0.1867 -0.0267,0.1066 -0.18667,0.16 -0.21333,0.053 -0.45333,-0.1867 -0.10667,-0.1333 -0.18667,-0.32 -0.08,-0.16 -0.10667,-0.3467 -0.18666,-1.12 -0.24,-2.1333 -0.0267,-0.9867 0.0267,-1.9467 0.0533,-0.9866 0.18667,-1.9733 0.13333,-0.9867 0.29333,-2.08 0.18667,-1.4133 0.45333,-2.7733 0.29334,-1.3867 0.69334,-2.7467 0.21333,-0.6133 0.4,-1.2533 0.21333,-0.64 0.50666,-1.2534 z"
         style="font-style:normal;font-variant:normal;font-weight:normal;font-stretch:normal;font-size:26.66666794px;font-family:'Sexy Beauty';-inkscape-font-specification:'Sexy Beauty';text-align:center;text-anchor:middle;fill:#ffffff;fill-opacity:1"
         id="path60599"
         inkscape:connector-curvature="0" />
      <path
         d="m 219.48882,1031.3416 q -0.0533,0.1066 -0.0533,0.1866 -0.08,0.72 0.16,1.36 0.0533,0.24 0.26667,0.48 0.24,0.2667 0.53333,0.3734 0.29334,0.1066 0.72,-0.027 0.16,-0.053 0.32,-0.1067 0.16,-0.08 0.34667,-0.16 0.4,-0.24 0.77333,-0.48 0.4,-0.2666 0.74667,-0.56 0.42667,-0.3733 0.8,-0.72 0.4,-0.3466 0.77333,-0.72 0.13334,-0.1333 0.26667,-0.24 0.13333,-0.1333 0.26667,-0.24 0.29333,-0.24 0.56,-0.24 0.26666,0 0.29333,0.2134 -0.0267,0.1066 -0.0533,0.2133 0,0.1067 -0.0533,0.24 -0.0533,0.1333 -0.13333,0.24 -0.08,0.1067 -0.16,0.2133 -1.38667,1.76 -3.38667,2.9067 -0.45333,0.2667 -0.96,0.48 -0.48,0.1867 -0.98666,0.32 -1.06667,0.32 -2,-0.2933 -0.42667,-0.2934 -0.69334,-0.6934 -0.26666,-0.4 -0.45333,-0.88 -0.4,-1.0133 -0.18667,-2.2133 0.26667,-1.92 1.49334,-3.6533 l 0.26666,-0.4534 q 0.58667,-0.8533 1.36,-1.52 0.77334,-0.6666 1.70667,-1.2 0.90667,-0.4533 1.86667,-0.5333 0.8,-0.08 1.52,0.16 1.01333,0.3733 0.88,1.4667 -0.16,1.0933 -0.85334,2.1333 -0.56,0.8 -1.28,1.44 -0.74666,0.64 -1.54666,1.2 -0.77334,0.5333 -1.73334,0.88 -0.21333,0.1067 -0.48,0.1867 -0.24,0.053 -0.45333,0.1066 z m 0.24,-1.2267 q 0.0267,0 0.0267,0.027 0,0 0.0267,0 0.0533,-0.027 0.18667,-0.027 0.45333,-0.1333 0.88,-0.32 0.45333,-0.1867 0.85333,-0.4533 l 1.14667,-0.8 q 0.58666,-0.4534 1.06666,-0.9867 0.48,-0.5333 0.82667,-1.1733 0.13333,-0.2667 0.26667,-0.6667 0.13333,-0.3467 -0.0533,-0.64 -0.18666,-0.2933 -0.58666,-0.2133 l -0.32,0.1066 q -0.85334,0.32 -1.52,0.8267 -0.66667,0.5067 -1.22667,1.12 -0.64,0.6933 -1.01333,1.4933 -0.34667,0.7734 -0.58667,1.6267 0,0.027 0,0.053 0.0267,0 0.0267,0.027 z"
         style="font-style:normal;font-variant:normal;font-weight:normal;font-stretch:normal;font-size:26.66666794px;font-family:'Sexy Beauty';-inkscape-font-specification:'Sexy Beauty';text-align:center;text-anchor:middle;fill:#ffffff;fill-opacity:1"
         id="path60601"
         inkscape:connector-curvature="0" />
      <path
         d="m 233.3209,1030.5949 -0.29333,0.3733 q -0.50667,0.64 -1.04,1.2534 -0.50667,0.6133 -1.09334,1.2 -0.64,0.64 -1.36,1.0933 -0.34666,0.2133 -0.69333,0.32 -0.61333,0.2667 -1.2,-0.08 -0.29334,-0.16 -0.48,-0.4 -0.45334,-0.56 -0.64,-1.1733 -0.18667,-0.64 0.0267,-1.3867 0.0533,-0.2933 0.13334,-0.56 0.10666,-0.2667 0.21333,-0.5333 1.25334,-3.0934 3.89334,-5.2534 0.72,-0.56 1.49333,-0.9333 0.8,-0.4 1.70667,-0.6133 1.06666,-0.2134 1.94666,0.1333 0.21334,0.08 0.34667,0.24 0.16,0.1333 0.16,0.3733 0,0.4534 -0.56,0.72 -0.10667,0.053 -0.21333,0.1067 -0.10667,0.027 -0.24,0.053 l -1.25334,0.1334 q -0.13333,0 -0.26666,0.027 -0.10667,0 -0.24,0 -0.77334,0.053 -1.41334,0.4 -0.64,0.3467 -1.12,0.9067 -1.49333,1.76 -2.21333,3.9467 -0.08,0.24 -0.13333,0.48 -0.0533,0.24 -0.10667,0.48 -0.10667,0.48 -0.0267,1.04 0.0267,0.1066 0.0533,0.2133 0.0533,0.08 0.10666,0.16 0.18667,0.32 0.45334,0.08 0.4,-0.2667 0.69333,-0.6133 0.4,-0.4 0.77333,-0.8 0.4,-0.4267 0.77334,-0.88 0.45333,-0.5334 0.88,-1.0934 0.42666,-0.5866 0.88,-1.1466 0.10666,-0.1334 0.16,-0.2667 0.08,-0.1333 0.13333,-0.2933 0.10667,-0.4534 0.50667,-0.8534 0.21333,-0.2133 0.50666,-0.24 0.29334,-0.027 0.53334,0.1867 0.26666,0.24 0.34666,0.5333 0.10667,0.2934 0.10667,0.64 -0.0533,0.4534 -0.10667,0.88 -0.0267,0.4267 -0.08,0.88 -0.13333,0.9867 -0.37333,1.9734 -0.24,0.96 -0.50667,1.92 -0.16,0.64 -0.26666,1.0133 -0.10667,0.3733 -0.34667,0.9867 -0.21333,0.5333 -0.45333,1.0666 -0.21334,0.56 -0.45334,1.0934 -0.8,1.7333 -2.21333,3.0666 -0.74667,0.6934 -1.81333,0.9067 -0.74667,0.1333 -1.25334,-0.2133 -0.50667,-0.32 -0.64,-0.9867 -0.24,-0.8533 0.18667,-1.8133 0.85333,-2.3467 3.09333,-3.68 0.18667,-0.1067 0.34667,-0.2134 0.18667,-0.08 0.4,-0.16 0.32,-0.1333 0.58667,-0.053 0.29333,0.053 0.34666,0.24 0.08,0.1867 -0.10666,0.4 -0.0533,0.08 -0.16,0.1333 -0.08,0.08 -0.16,0.1334 l -0.8,0.48 q -0.82667,0.5066 -1.30667,1.1733 -0.45333,0.6933 -0.66667,1.5467 -0.18666,0.56 -0.10666,1.0133 0.0533,0.1333 0.08,0.24 0.0267,0.1333 0.08,0.24 0.10666,0.1867 0.29333,0.2133 0.18667,0.053 0.4,-0.053 0.08,-0.053 0.16,-0.1067 0.08,-0.027 0.13333,-0.08 0.21334,-0.1866 0.37334,-0.4 0.18666,-0.2133 0.34666,-0.4533 0.34667,-0.4533 0.56,-0.96 0.24,-0.48 0.42667,-0.9867 0.34667,-0.9066 0.56,-1.6 0.21333,-0.6666 0.42667,-1.6 0.21333,-0.9333 0.4,-1.8133 0.18666,-0.9067 0.4,-1.8133 0.0533,-0.1334 0.0533,-0.2667 0,-0.16 0.0267,-0.2933 -0.0267,0 -0.0533,0 0,-0.027 -0.0533,-0.027 z"
         style="font-style:normal;font-variant:normal;font-weight:normal;font-stretch:normal;font-size:26.66666794px;font-family:'Sexy Beauty';-inkscape-font-specification:'Sexy Beauty';text-align:center;text-anchor:middle;fill:#ffffff;fill-opacity:1"
         id="path60603"
         inkscape:connector-curvature="0" />
      <path
         d="m 242.27799,1023.7949 q 0.16,-0.08 0.26666,-0.16 0.10667,-0.08 0.24,-0.1333 0.98667,-0.48 1.76,0.1333 0.21334,0.16 0.34667,0.3467 0.16,0.1866 0.21333,0.4266 0.18667,0.5867 0.21334,1.04 -0.0267,0.4534 -0.08,0.9067 -0.0267,0.4267 -0.16,0.88 -0.56,2.08 -1.84,3.92 -0.37334,0.56 -0.8,1.12 -0.4,0.5333 -0.85334,1.0667 -0.21333,0.2933 -0.50666,0.56 -0.26667,0.24 -0.56,0.5333 l -0.21334,0.16 q -0.85333,0.6933 -1.70666,0.56 -0.82667,-0.1067 -1.41334,-0.6133 -1.01333,-0.9334 -1.12,-2.2667 -0.24,-1.9467 0.58667,-3.9467 0.13333,-0.3733 0.32,-0.72 0.21333,-0.3733 0.42667,-0.7466 0.4,-0.6134 0.88,-1.12 0.50666,-0.5334 1.06666,-0.9867 0.69334,-0.5333 1.54667,-0.8267 0.66667,-0.2133 1.38667,-0.1333 z m -1.30667,1.52 q 0,0 -0.10667,-0.053 -0.13333,0.1333 -0.24,0.2666 -0.10666,0.1067 -0.24,0.24 -0.37333,0.4534 -0.66666,0.96 -0.29334,0.5067 -0.53334,1.04 -0.45333,1.0134 -0.64,2.0534 -0.16,1.0133 -0.21333,2.0533 0,0.4533 0.0533,0.88 0.08,0.4267 0.29334,0.8267 0.21333,0.4266 0.34666,0.4533 0.16,0.027 0.58667,-0.2667 0.61333,-0.4533 1.12,-1.0933 0.32,-0.4267 0.64,-0.8267 0.34667,-0.4266 0.66667,-0.88 0.64,-0.8533 1.01333,-1.68 0.34667,-0.6666 0.58667,-1.3333 0.26666,-0.6933 0.4,-1.3867 0.08,-0.4 0.08,-0.8 0.0267,-0.4 -0.08,-0.7733 -0.08,-0.2667 -0.21334,-0.4267 -0.21333,-0.2933 -0.61333,-0.08 -0.10667,0.053 -0.26667,0.2134 -0.64,0.48 -0.96,1.0933 -0.21333,0.3467 -0.37333,0.6933 -0.16,0.32 -0.34667,0.6667 l -0.32,0.5067 q -0.08,0.08 -0.18666,0.16 -0.08,0.053 -0.21334,0.027 -0.13333,-0.027 -0.21333,-0.1066 -0.0533,-0.1067 -0.08,-0.2134 -0.0267,-0.1333 -0.0533,-0.24 0,-0.1333 0.0533,-0.2666 0.0533,-0.3467 0.18667,-0.64 0.13333,-0.32 0.26666,-0.64 z"
         style="font-style:normal;font-variant:normal;font-weight:normal;font-stretch:normal;font-size:26.66666794px;font-family:'Sexy Beauty';-inkscape-font-specification:'Sexy Beauty';text-align:center;text-anchor:middle;fill:#ffffff;fill-opacity:1"
         id="path60605"
         inkscape:connector-curvature="0" />
      <path
         d="m 245.21215,1031.5816 q 0.0267,-0.4267 0.10667,-0.8 0.10666,-0.4 0.24,-0.7734 0.96,-2.8533 3.30666,-4.96 0.69334,-0.5866 1.44,-0.9866 0.77334,-0.4267 1.68,-0.6134 0.34667,-0.08 0.66667,-0.08 0.34667,-0.027 0.69333,0.1067 1.04,0.32 1.04,1.36 0.0267,1.12 -0.74666,2.1067 -0.37334,0.4533 -0.8,0.8266 -0.4,0.3734 -0.90667,0.72 -0.32,0.2134 -0.69333,0.1867 -0.18667,-0.027 -0.32,-0.1333 -0.10667,-0.1334 -0.08,-0.3467 0,-0.1867 0.08,-0.3467 0.08,-0.16 0.18666,-0.2933 0.21334,-0.2933 0.45334,-0.5067 0.26666,-0.2133 0.56,-0.4266 0.29333,-0.2134 0.50666,-0.4267 0.21334,-0.24 0.4,-0.5333 0.21334,-0.32 0.18667,-0.5867 -0.0533,-0.4267 -0.50667,-0.2933 -0.10666,0.027 -0.32,0.1333 -0.77333,0.4533 -1.41333,1.04 -0.64,0.56 -1.14667,1.2533 -0.21333,0.3467 -0.45333,0.6667 -0.21333,0.32 -0.42667,0.6667 -1.09333,1.8133 -1.49333,3.92 -0.0267,0.1866 -0.0533,0.3733 0,0.16 0.0267,0.32 0.0267,0.16 0.0533,0.32 0.0267,0.1333 0.10666,0.2667 0.10667,0.3466 0.61334,0.4 0.85333,0.053 1.54666,-0.4267 0.61334,-0.4 1.17334,-0.8267 0.58666,-0.4266 1.12,-0.9333 l 1.01333,-0.9867 q 0.29333,-0.3466 0.66667,-0.4533 0.4,-0.1067 0.42666,0.24 0,0.3467 -0.26666,0.6933 -0.21334,0.2934 -0.42667,0.56 -0.18667,0.24 -0.42667,0.5067 -0.61333,0.6133 -1.30666,1.1467 -0.66667,0.5333 -1.44,0.9866 -0.93334,0.56 -1.86667,0.5867 -0.93333,0.027 -1.84,-0.3467 -0.45333,-0.2133 -0.74667,-0.5333 -0.29333,-0.3467 -0.45333,-0.8 -0.13333,-0.3733 -0.16,-0.7467 -0.0267,-0.3733 -0.0533,-0.7733 z"
         style="font-style:normal;font-variant:normal;font-weight:normal;font-stretch:normal;font-size:26.66666794px;font-family:'Sexy Beauty';-inkscape-font-specification:'Sexy Beauty';text-align:center;text-anchor:middle;fill:#ffffff;fill-opacity:1"
         id="path60607"
         inkscape:connector-curvature="0" />
      <path
         d="m 257.1509,1034.0082 q 0.13333,0 0.26667,0 0.13333,0 0.24,0.1334 0.08,0.1333 0.0267,0.2666 -0.0267,0.1334 -0.10666,0.2934 0,0.053 -0.0533,0.053 -0.24,0.24 -0.58666,0.3733 -0.34667,0.1334 -0.72,0.1334 -0.34667,0.027 -0.66667,-0.1334 -0.32,-0.16 -0.50667,-0.5333 -0.13333,-0.24 -0.21333,-0.5067 -0.0533,-0.2666 0,-0.56 0,-2.2666 0.50667,-4.3733 0.50666,-2.1333 1.36,-4.1867 0.37333,-0.5866 0.90666,-0.6666 0.53334,-0.1067 0.98667,0.24 0.34667,0.2133 0.29333,0.6666 -0.0267,0.4534 -0.10666,0.7734 -0.16,0.48 -0.45334,1.3333 -0.29333,0.8267 -0.61333,1.7867 -0.32,0.96 -0.61333,1.92 -0.29334,0.96 -0.42667,1.68 -0.13333,0.72 -0.0533,1.12 0.10666,0.3733 0.53333,0.1866 z m 0.74667,-12.16 q 0.0267,-0.48 0.34666,-0.9066 0.34667,-0.4267 0.88,-0.5334 0.45334,-0.1333 0.8,0.08 0.34667,0.2134 0.32,0.6134 0.0533,0.9066 -0.66666,1.4666 -0.21334,0.1334 -0.42667,0.2134 -0.21333,0.053 -0.48,-0.027 -0.0533,0 -0.21333,-0.053 -0.50667,-0.16 -0.53334,-0.64 0.0267,-0.1067 -0.0267,-0.2134 z"
         style="font-style:normal;font-variant:normal;font-weight:normal;font-stretch:normal;font-size:26.66666794px;font-family:'Sexy Beauty';-inkscape-font-specification:'Sexy Beauty';text-align:center;text-anchor:middle;fill:#ffffff;fill-opacity:1"
         id="path60609"
         inkscape:connector-curvature="0" />
      <path
         d="m 265.17257,1023.7949 q 0.16,-0.08 0.26667,-0.16 0.10666,-0.08 0.24,-0.1333 0.98666,-0.48 1.76,0.1333 0.21333,0.16 0.34666,0.3467 0.16,0.1866 0.21334,0.4266 0.18666,0.5867 0.21333,1.04 -0.0267,0.4534 -0.08,0.9067 -0.0267,0.4267 -0.16,0.88 -0.56,2.08 -1.84,3.92 -0.37333,0.56 -0.8,1.12 -0.4,0.5333 -0.85333,1.0667 -0.21334,0.2933 -0.50667,0.56 -0.26667,0.24 -0.56,0.5333 l -0.21333,0.16 q -0.85334,0.6933 -1.70667,0.56 -0.82667,-0.1067 -1.41333,-0.6133 -1.01334,-0.9334 -1.12,-2.2667 -0.24,-1.9467 0.58666,-3.9467 0.13334,-0.3733 0.32,-0.72 0.21334,-0.3733 0.42667,-0.7466 0.4,-0.6134 0.88,-1.12 0.50667,-0.5334 1.06667,-0.9867 0.69333,-0.5333 1.54666,-0.8267 0.66667,-0.2133 1.38667,-0.1333 z m -1.30667,1.52 q 0,0 -0.10666,-0.053 -0.13334,0.1333 -0.24,0.2666 -0.10667,0.1067 -0.24,0.24 -0.37334,0.4534 -0.66667,0.96 -0.29333,0.5067 -0.53333,1.04 -0.45334,1.0134 -0.64,2.0534 -0.16,1.0133 -0.21334,2.0533 0,0.4533 0.0533,0.88 0.08,0.4267 0.29333,0.8267 0.21333,0.4266 0.34667,0.4533 0.16,0.027 0.58666,-0.2667 0.61334,-0.4533 1.12,-1.0933 0.32,-0.4267 0.64,-0.8267 0.34667,-0.4266 0.66667,-0.88 0.64,-0.8533 1.01333,-1.68 0.34667,-0.6666 0.58667,-1.3333 0.26667,-0.6933 0.4,-1.3867 0.08,-0.4 0.08,-0.8 0.0267,-0.4 -0.08,-0.7733 -0.08,-0.2667 -0.21333,-0.4267 -0.21334,-0.2933 -0.61334,-0.08 -0.10666,0.053 -0.26666,0.2134 -0.64,0.48 -0.96,1.0933 -0.21334,0.3467 -0.37334,0.6933 -0.16,0.32 -0.34666,0.6667 l -0.32,0.5067 q -0.08,0.08 -0.18667,0.16 -0.08,0.053 -0.21333,0.027 -0.13334,-0.027 -0.21334,-0.1066 -0.0533,-0.1067 -0.08,-0.2134 -0.0267,-0.1333 -0.0533,-0.24 0,-0.1333 0.0533,-0.2666 0.0533,-0.3467 0.18667,-0.64 0.13333,-0.32 0.26667,-0.64 z"
         style="font-style:normal;font-variant:normal;font-weight:normal;font-stretch:normal;font-size:26.66666794px;font-family:'Sexy Beauty';-inkscape-font-specification:'Sexy Beauty';text-align:center;text-anchor:middle;fill:#ffffff;fill-opacity:1"
         id="path60611"
         inkscape:connector-curvature="0" />
    </g>
    <g
       id="g25452-4-6-1-1"
       transform="matrix(1.96612,0,0,1.96612,-308.97375,-225.91636)"
       style="fill:#ffffff;fill-opacity:1">
      <path
         sodipodi:nodetypes="ccccc"
         inkscape:connector-curvature="0"
         id="path3045-9-9-9-8-8-0-7-5-2-4-0"
         d="m 163.67105,258.26231 h -2.43293 l -3.6494,4.86533 h 2.43295 z"
         style="fill:#ffffff;fill-opacity:1;stroke:none;stroke-width:0.05;stroke-linecap:butt;stroke-linejoin:miter;stroke-miterlimit:4;stroke-dasharray:none;stroke-opacity:1" />
      <path
         sodipodi:nodetypes="ccssc"
         inkscape:connector-curvature="0"
         id="path3045-9-9-9-8-8-0-7-8-7-9-0-3"
         d="m 160.022,263.20881 h -2.43328 v 0.632 c 0,0.811 2.56037,0.80098 2.43328,0 z"
         style="fill:#ffffff;fill-opacity:1;stroke:none;stroke-width:0.05;stroke-linecap:butt;stroke-linejoin:miter;stroke-miterlimit:4;stroke-dasharray:none;stroke-opacity:1" />
    </g>
    <g
       id="g25456-2-1-3-0"
       transform="matrix(1.96612,0,0,1.96612,-309.41413,-225.91636)">
      <path
         sodipodi:nodetypes="ccccc"
         inkscape:connector-curvature="0"
         id="path3045-9-9-9-8-8-0-1-2-12-0"
         d="m 166.46515,258.26231 h -2.43293 l -3.6494,4.86533 h 2.43295 z"
         style="fill:#ff0000;fill-opacity:1;stroke:none;stroke-width:0.05;stroke-linecap:butt;stroke-linejoin:miter;stroke-miterlimit:4;stroke-dasharray:none;stroke-opacity:1" />
      <path
         sodipodi:nodetypes="ccssc"
         inkscape:connector-curvature="0"
         id="path3045-9-9-9-8-8-0-7-8-9-3-7-7-4"
         d="m 162.81577,263.20881 h -2.43328 v 0.632 c 0,0.811 2.56037,0.80098 2.43328,0 z"
         style="fill:#ff0000;fill-opacity:1;stroke:none;stroke-width:0.05;stroke-linecap:butt;stroke-linejoin:miter;stroke-miterlimit:4;stroke-dasharray:none;stroke-opacity:1" />
    </g>
  </g>
</svg>
