<?xml version="1.0" encoding="UTF-8" standalone="no"?>
<!-- Created with Inkscape (http://www.inkscape.org/) -->

<svg
   xmlns:dc="http://purl.org/dc/elements/1.1/"
   xmlns:cc="http://creativecommons.org/ns#"
   xmlns:rdf="http://www.w3.org/1999/02/22-rdf-syntax-ns#"
   xmlns:svg="http://www.w3.org/2000/svg"
   xmlns="http://www.w3.org/2000/svg"
   xmlns:sodipodi="http://sodipodi.sourceforge.net/DTD/sodipodi-0.dtd"
   xmlns:inkscape="http://www.inkscape.org/namespaces/inkscape"
   width="72mm"
   height="22mm"
   viewBox="0 0 72 22"
   version="1.1"
   id="svg278721"
   inkscape:version="0.92.4 (5da689c313, 2019-01-14)"
   sodipodi:docname="logo-full.svg">
  <defs
     id="defs278715" />
  <sodipodi:namedview
     id="base"
     pagecolor="#ffffff"
     bordercolor="#666666"
     borderopacity="1.0"
     inkscape:pageopacity="0.0"
     inkscape:pageshadow="2"
     inkscape:zoom="1.18125"
     inkscape:cx="-121.90476"
     inkscape:cy="39.196877"
     inkscape:document-units="mm"
     inkscape:current-layer="layer1"
     showgrid="false"
     inkscape:window-width="1920"
     inkscape:window-height="1017"
     inkscape:window-x="-8"
     inkscape:window-y="-8"
     inkscape:window-maximized="1" />
  <metadata
     id="metadata278718">
    <rdf:RDF>
      <cc:Work
         rdf:about="">
        <dc:format>image/svg+xml</dc:format>
        <dc:type
           rdf:resource="http://purl.org/dc/dcmitype/StillImage" />
        <dc:title></dc:title>
      </cc:Work>
    </rdf:RDF>
  </metadata>
  <g
     inkscape:label="Capa 1"
     inkscape:groupmode="layer"
     id="layer1"
     transform="translate(0,-275)">
    <g
       id="g2973"
       transform="matrix(0.74228523,0,0,0.74228523,-50.829243,156.34898)">
      <g
         transform="matrix(2.6996806,0,0,2.6996806,-38.487933,-624.13555)"
         id="g25542-6-3">
        <g
           aria-label="Pa'l Negocio"
           transform="matrix(0.26458333,0,0,0.26458333,4.4200008,22.58602)"
           style="font-style:normal;font-variant:normal;font-weight:normal;font-stretch:normal;font-size:26.66666794px;line-height:1.25;font-family:'Sexy Beauty';-inkscape-font-specification:'Sexy Beauty';font-variant-ligatures:normal;font-variant-caps:normal;font-variant-numeric:normal;font-feature-settings:normal;text-align:start;letter-spacing:0.01px;word-spacing:0px;writing-mode:lr-tb;text-anchor:start;fill:#ffffff;fill-opacity:1;stroke:none"
           id="flowRoot3131-6-5-8-7-4">
          <path
             d="m 169.92298,1029.9016 0.21333,-0.3467 q 0.45334,-1.0933 0.93334,-2.16 0.50666,-1.0933 1.01333,-2.1867 0.42667,-0.9066 0.88,-1.7866 0.48,-0.88 1.01333,-1.7334 0.45334,-0.72 0.96,-1.3866 0.53334,-0.6667 1.09334,-1.3334 0.88,-0.96 1.94666,-1.5733 0.13334,-0.08 0.4,-0.1867 0.29334,-0.1333 0.58667,-0.24 0.32,-0.1333 0.61333,-0.24 0.29334,-0.1066 0.45334,-0.16 0.4,-0.1066 0.77333,-0.1066 0.37333,0 0.72,0.1866 0.50667,0.2667 0.61333,0.72 0.16,0.5867 0.08,1.2267 -0.0533,0.2133 -0.10666,0.4267 -0.0533,0.1866 -0.13334,0.4 -0.42666,1.36 -1.06666,2.64 -0.64,1.2533 -1.49334,2.48 -0.45333,0.6133 -0.90666,1.2266 -0.42667,0.5867 -0.96,1.1734 -0.29334,0.32 -0.72,0.6666 -0.4,0.3467 -0.88,0.6934 -0.45334,0.32 -0.93334,0.6133 -0.45333,0.2667 -0.85333,0.48 -0.18667,0.1333 -0.4,0.24 -0.21333,0.08 -0.42667,0.16 -0.29333,0.1333 -0.56,0.053 -0.21333,-0.053 -0.29333,-0.1866 -0.08,-0.16 0.0267,-0.3467 0.13333,-0.16 0.4,-0.3467 0.18666,-0.16 0.4,-0.32 0.24,-0.16 0.45333,-0.3466 0.56,-0.4534 1.14667,-0.9867 0.61333,-0.5333 1.17333,-1.12 0.58667,-0.5867 1.06667,-1.2 0.50666,-0.6133 0.85333,-1.2267 0.53333,-0.9333 0.96,-1.8933 0.42667,-0.96 0.64,-1.9733 0.08,-0.32 0.10667,-0.64 0.0267,-0.3467 0.08,-0.6934 0,-0.1333 -0.0267,-0.24 0,-0.1333 -0.13333,-0.1866 -0.08,-0.027 -0.26667,0.027 -0.18667,0.027 -0.4,0.1067 -0.21333,0.08 -0.4,0.16 -0.16,0.08 -0.21333,0.1333 -0.61334,0.4534 -1.2,0.96 -0.58667,0.5067 -1.04,1.12 -0.32,0.4267 -0.61334,0.8534 -0.29333,0.4 -0.58666,0.8533 -0.64,1.0133 -1.2,2.0533 -0.53334,1.04 -1.01334,2.1334 -0.37333,0.88 -0.77333,1.76 -0.37333,0.88 -0.77333,1.76 -0.82667,1.76 -1.38667,3.4666 -0.56,1.7067 -1.09333,3.3067 -0.10667,0.2667 -0.29334,0.48 -0.24,0.32 -0.66666,0.32 -0.21334,-0.027 -0.34667,-0.16 -0.10667,-0.1067 -0.16,-0.2667 -0.08,-0.1866 -0.08,-0.3733 -0.0267,-1.3867 0.10667,-2.9867 0.13333,-1.6 0.37333,-3.2533 0.24,-1.68 0.56,-3.3333 0.32,-1.6534 0.66667,-3.1467 0.34666,-1.4933 0.8,-2.9067 0.48,-1.44 1.04,-2.88 0.10666,-0.24 0.21333,-0.48 0.13333,-0.2666 0.26667,-0.5066 0.0533,-0.1334 0.13333,-0.2667 0.10667,-0.1333 0.18667,-0.2667 0.4,-0.48 1.06666,-0.4 0.29334,0.053 0.48,0.2667 0.18667,0.2133 0.18667,0.5067 0.0533,0.2933 0,0.56 -0.0533,0.24 -0.13333,0.5333 l -1.04,3.1467 -1.01334,3.4133 q -0.34666,1.12 -0.58666,2.2133 -0.24,1.0934 -0.45334,2.2134 -0.0533,0.16 -0.08,0.32 -0.0267,0.16 -0.0533,0.32 z"
             style="font-style:normal;font-variant:normal;font-weight:normal;font-stretch:normal;font-size:26.66666794px;font-family:'Sexy Beauty';-inkscape-font-specification:'Sexy Beauty';text-align:center;text-anchor:middle"
             id="path64007" />
          <path
             d="m 184.62006,1029.2882 -0.26666,0.32 -2.58667,3.28 q -0.24,0.2934 -0.48,0.5867 -0.24,0.2933 -0.48,0.5867 -0.18667,0.1866 -0.37333,0.3733 -0.16,0.16 -0.34667,0.32 -0.32,0.2933 -0.74667,0.4 -0.98666,0.3733 -1.49333,-0.4533 -0.21333,-0.2934 -0.26667,-0.72 0,-0.2134 -0.0267,-0.4534 0,-0.24 0.0267,-0.4533 0.29334,-2.8 1.97334,-5.2 1.30666,-1.8133 3.28,-2.8267 0.66666,-0.3466 1.41333,-0.56 0.53333,-0.1333 1.09333,-0.08 0.98667,0.053 1.44,0.72 l 0.10667,0.1067 q 0.08,0 0.13333,0 0.08,-0.027 0.16,-0.027 0.24,0 0.34667,0.053 0.58667,0.1866 0.45333,0.6933 -0.0533,0.2667 -0.13333,0.5067 -0.0533,0.24 -0.16,0.5066 -0.24,0.5867 -0.45333,1.2 -0.21334,0.5867 -0.4,1.2 -0.21334,0.6934 -0.34667,1.4134 -0.13333,0.72 -0.26667,1.44 l -0.26666,1.68 q -0.08,0.4266 -0.29334,0.96 l -0.10666,0.2133 q -0.16,0.2133 -0.4,0.24 -0.24,0.027 -0.42667,-0.1067 -0.16,-0.1333 -0.29333,-0.2666 -0.10667,-0.1334 -0.13334,-0.32 -0.0533,-0.2667 -0.10666,-0.5067 -0.0267,-0.24 -0.0267,-0.5067 0,-0.72 0.08,-1.44 0.08,-0.7466 0.21333,-1.4666 l 0.26667,-1.4134 z m -4.69333,4.0534 q 0.18667,-0.1334 0.26667,-0.2667 0.10666,-0.16 0.24,-0.2933 l 2.66666,-3.3867 q 0.32,-0.3733 0.64,-0.7467 0.32,-0.3733 0.66667,-0.7466 0.32,-0.4534 0.64,-0.7467 0.34667,-0.32 0.74667,-0.7467 0.13333,-0.2933 -0.08,-0.5066 -0.32,-0.2934 -0.72,-0.2134 -0.13334,0.053 -0.26667,0.1067 -0.10667,0.027 -0.24,0.08 -0.48,0.2133 -0.90667,0.5067 -0.42666,0.2666 -0.8,0.64 -0.42666,0.4 -0.82666,0.8266 -1.76,1.9734 -2.13334,4.5334 -0.0267,0.1866 -0.0267,0.3733 0.0267,0.1867 0.0267,0.3733 z"
             style="font-style:normal;font-variant:normal;font-weight:normal;font-stretch:normal;font-size:26.66666794px;font-family:'Sexy Beauty';-inkscape-font-specification:'Sexy Beauty';text-align:center;text-anchor:middle"
             id="path64009" />
          <path
             d="m 192.66194,1014.8145 -0.5599,7.539 h -1.77083 l -0.5599,-7.539 z"
             style="font-style:normal;font-variant:normal;font-weight:normal;font-stretch:normal;font-size:26.66666794px;font-family:'Sexy Beauty';-inkscape-font-specification:'Sexy Beauty';text-align:center;text-anchor:middle"
             id="path64011" />
          <path
             d="m 196.1934,1027.7949 q 0.18666,-1.04 0.45333,-2.24 0.29333,-1.2 0.61333,-2.3733 0.34667,-1.2 0.72,-2.2934 0.37334,-1.12 0.77334,-2 0.4,-0.88 0.82666,-1.44 0.42667,-0.5866 0.85334,-0.72 0.32,-0.08 0.56,0.053 0.26666,0.1066 0.37333,0.4 0.0533,0.08 0.0533,0.1866 0,0.1067 0.0267,0.2134 -0.0533,0.2933 -0.34667,1.0133 -0.26666,0.72 -0.72,1.92 -0.42666,1.2 -0.96,2.9067 -0.53333,1.7066 -1.09333,4 -0.42667,1.9733 -0.82667,3.7066 -0.37333,1.7067 -0.58666,3.44 l -0.32,2.7734 q 0,0.08 -0.0267,0.16 -0.0267,0.08 -0.0533,0.16 -0.0533,0.2133 -0.34667,0.16 -0.32,-0.053 -0.4,-0.3467 -0.0533,-0.2133 -0.13333,-0.4533 -0.0533,-0.24 -0.10667,-0.48 -0.13333,-1.2 -0.13333,-2.2667 0.0267,-1.0933 0.13333,-2.1333 0.13333,-1.0667 0.29333,-2.1067 0.18667,-1.0667 0.37334,-2.24 z"
             style="font-style:normal;font-variant:normal;font-weight:normal;font-stretch:normal;font-size:26.66666794px;font-family:'Sexy Beauty';-inkscape-font-specification:'Sexy Beauty';text-align:center;text-anchor:middle"
             id="path64013" />
          <path
             d="m 215.83381,1021.1282 q -0.13333,0.053 -0.24,0.1867 -0.08,0.1067 -0.16,0.2133 -0.8,1.12 -1.54666,2.2667 -0.74667,1.12 -1.41334,2.32 -0.8,1.36 -1.49333,2.6667 -0.66667,1.28 -1.30667,2.56 -0.64,1.28 -1.25333,2.5866 -0.58667,1.3067 -1.2,2.7467 -0.08,0.2133 -0.26667,0.4533 -0.26666,0.2934 -0.61333,0.2667 -0.34667,-0.027 -0.53333,-0.3467 -0.0533,-0.1333 -0.10667,-0.2666 -0.0533,-0.1067 -0.0533,-0.24 -0.10667,-0.8 -0.16,-1.4934 -0.0533,-0.72 -0.08,-1.3866 0,-0.6667 0.0267,-1.3334 0.0533,-0.6933 0.16,-1.4933 0.13334,-0.88 0.29334,-1.76 0.16,-0.88 0.32,-1.7333 0.13333,-0.6667 0.26666,-1.3067 0.13334,-0.6667 0.29334,-1.3067 0.37333,-1.52 0.88,-2.96 0.53333,-1.4666 1.28,-2.9066 l 0.45333,-0.8534 q 0.13333,-0.2133 0.29333,-0.3733 0.18667,-0.1867 0.4,-0.3733 0.24,-0.2134 0.66667,-0.1867 0.45333,0 0.66667,0.32 0.24,0.3733 0.16,0.72 -0.0267,0.2933 -0.10667,0.56 -0.0533,0.2667 -0.16,0.5333 l -1.25333,3.0667 q -0.42667,1.12 -0.77334,2.24 -0.32,1.0933 -0.61333,2.2133 -0.37333,1.2534 -0.61333,2.5067 -0.21334,1.2267 -0.4,2.48 -0.0533,0.32 -0.08,0.64 -0.0267,0.32 -0.08,0.64 0,0.027 0,0.053 0.0267,0.027 0.0267,0.053 0.13334,0 0.13334,-0.053 0.0267,-0.08 0.08,-0.1333 l 1.6,-3.3333 q 0.77333,-1.52 1.6,-3.0134 0.82666,-1.52 1.76,-2.9866 0.37333,-0.5334 0.69333,-1.04 0.34667,-0.5334 0.72,-1.0667 1.01333,-1.4667 2.32,-2.6933 0.26667,-0.24 0.53334,-0.48 0.29333,-0.24 0.58666,-0.4534 0.24,-0.2133 0.56,-0.2933 0.32,-0.1333 0.58667,-0.027 0.26667,0.08 0.4,0.3734 0.0533,0.1333 0.08,0.2933 0.0267,0.16 0,0.2933 0,0.4534 -0.10667,0.88 -0.10666,0.4267 -0.26666,0.8534 -0.37334,0.9333 -0.74667,1.8666 -0.34667,0.9334 -0.66667,1.8934 -0.34666,0.96 -0.66666,1.9466 -0.32,0.96 -0.61334,1.9467 -0.37333,1.36 -0.64,2.5867 -0.24,1.2266 -0.4,2.4 -0.16,1.1733 -0.29333,2.3466 -0.10667,1.2 -0.21334,2.48 0,0.027 -0.0267,0.053 0,0.027 0,0.053 -0.0533,0.1067 -0.08,0.1867 -0.0267,0.1066 -0.18667,0.16 -0.21333,0.053 -0.45333,-0.1867 -0.10667,-0.1333 -0.18667,-0.32 -0.08,-0.16 -0.10667,-0.3467 -0.18666,-1.12 -0.24,-2.1333 -0.0267,-0.9867 0.0267,-1.9467 0.0533,-0.9866 0.18667,-1.9733 0.13333,-0.9867 0.29333,-2.08 0.18667,-1.4133 0.45333,-2.7733 0.29334,-1.3867 0.69334,-2.7467 0.21333,-0.6133 0.4,-1.2533 0.21333,-0.64 0.50666,-1.2534 z"
             style="font-style:normal;font-variant:normal;font-weight:normal;font-stretch:normal;font-size:26.66666794px;font-family:'Sexy Beauty';-inkscape-font-specification:'Sexy Beauty';text-align:center;text-anchor:middle"
             id="path64015" />
          <path
             d="m 219.48882,1031.3416 q -0.0533,0.1066 -0.0533,0.1866 -0.08,0.72 0.16,1.36 0.0533,0.24 0.26667,0.48 0.24,0.2667 0.53333,0.3734 0.29334,0.1066 0.72,-0.027 0.16,-0.053 0.32,-0.1067 0.16,-0.08 0.34667,-0.16 0.4,-0.24 0.77333,-0.48 0.4,-0.2666 0.74667,-0.56 0.42667,-0.3733 0.8,-0.72 0.4,-0.3466 0.77333,-0.72 0.13334,-0.1333 0.26667,-0.24 0.13333,-0.1333 0.26667,-0.24 0.29333,-0.24 0.56,-0.24 0.26666,0 0.29333,0.2134 -0.0267,0.1066 -0.0533,0.2133 0,0.1067 -0.0533,0.24 -0.0533,0.1333 -0.13333,0.24 -0.08,0.1067 -0.16,0.2133 -1.38667,1.76 -3.38667,2.9067 -0.45333,0.2667 -0.96,0.48 -0.48,0.1867 -0.98666,0.32 -1.06667,0.32 -2,-0.2933 -0.42667,-0.2934 -0.69334,-0.6934 -0.26666,-0.4 -0.45333,-0.88 -0.4,-1.0133 -0.18667,-2.2133 0.26667,-1.92 1.49334,-3.6533 l 0.26666,-0.4534 q 0.58667,-0.8533 1.36,-1.52 0.77334,-0.6666 1.70667,-1.2 0.90667,-0.4533 1.86667,-0.5333 0.8,-0.08 1.52,0.16 1.01333,0.3733 0.88,1.4667 -0.16,1.0933 -0.85334,2.1333 -0.56,0.8 -1.28,1.44 -0.74666,0.64 -1.54666,1.2 -0.77334,0.5333 -1.73334,0.88 -0.21333,0.1067 -0.48,0.1867 -0.24,0.053 -0.45333,0.1066 z m 0.24,-1.2267 q 0.0267,0 0.0267,0.027 0,0 0.0267,0 0.0533,-0.027 0.18667,-0.027 0.45333,-0.1333 0.88,-0.32 0.45333,-0.1867 0.85333,-0.4533 l 1.14667,-0.8 q 0.58666,-0.4534 1.06666,-0.9867 0.48,-0.5333 0.82667,-1.1733 0.13333,-0.2667 0.26667,-0.6667 0.13333,-0.3467 -0.0533,-0.64 -0.18666,-0.2933 -0.58666,-0.2133 l -0.32,0.1066 q -0.85334,0.32 -1.52,0.8267 -0.66667,0.5067 -1.22667,1.12 -0.64,0.6933 -1.01333,1.4933 -0.34667,0.7734 -0.58667,1.6267 0,0.027 0,0.053 0.0267,0 0.0267,0.027 z"
             style="font-style:normal;font-variant:normal;font-weight:normal;font-stretch:normal;font-size:26.66666794px;font-family:'Sexy Beauty';-inkscape-font-specification:'Sexy Beauty';text-align:center;text-anchor:middle"
             id="path64017" />
          <path
             d="m 233.3209,1030.5949 -0.29333,0.3733 q -0.50667,0.64 -1.04,1.2534 -0.50667,0.6133 -1.09334,1.2 -0.64,0.64 -1.36,1.0933 -0.34666,0.2133 -0.69333,0.32 -0.61333,0.2667 -1.2,-0.08 -0.29334,-0.16 -0.48,-0.4 -0.45334,-0.56 -0.64,-1.1733 -0.18667,-0.64 0.0267,-1.3867 0.0533,-0.2933 0.13334,-0.56 0.10666,-0.2667 0.21333,-0.5333 1.25334,-3.0934 3.89334,-5.2534 0.72,-0.56 1.49333,-0.9333 0.8,-0.4 1.70667,-0.6133 1.06666,-0.2134 1.94666,0.1333 0.21334,0.08 0.34667,0.24 0.16,0.1333 0.16,0.3733 0,0.4534 -0.56,0.72 -0.10667,0.053 -0.21333,0.1067 -0.10667,0.027 -0.24,0.053 l -1.25334,0.1334 q -0.13333,0 -0.26666,0.027 -0.10667,0 -0.24,0 -0.77334,0.053 -1.41334,0.4 -0.64,0.3467 -1.12,0.9067 -1.49333,1.76 -2.21333,3.9467 -0.08,0.24 -0.13333,0.48 -0.0533,0.24 -0.10667,0.48 -0.10667,0.48 -0.0267,1.04 0.0267,0.1066 0.0533,0.2133 0.0533,0.08 0.10666,0.16 0.18667,0.32 0.45334,0.08 0.4,-0.2667 0.69333,-0.6133 0.4,-0.4 0.77333,-0.8 0.4,-0.4267 0.77334,-0.88 0.45333,-0.5334 0.88,-1.0934 0.42666,-0.5866 0.88,-1.1466 0.10666,-0.1334 0.16,-0.2667 0.08,-0.1333 0.13333,-0.2933 0.10667,-0.4534 0.50667,-0.8534 0.21333,-0.2133 0.50666,-0.24 0.29334,-0.027 0.53334,0.1867 0.26666,0.24 0.34666,0.5333 0.10667,0.2934 0.10667,0.64 -0.0533,0.4534 -0.10667,0.88 -0.0267,0.4267 -0.08,0.88 -0.13333,0.9867 -0.37333,1.9734 -0.24,0.96 -0.50667,1.92 -0.16,0.64 -0.26666,1.0133 -0.10667,0.3733 -0.34667,0.9867 -0.21333,0.5333 -0.45333,1.0666 -0.21334,0.56 -0.45334,1.0934 -0.8,1.7333 -2.21333,3.0666 -0.74667,0.6934 -1.81333,0.9067 -0.74667,0.1333 -1.25334,-0.2133 -0.50667,-0.32 -0.64,-0.9867 -0.24,-0.8533 0.18667,-1.8133 0.85333,-2.3467 3.09333,-3.68 0.18667,-0.1067 0.34667,-0.2134 0.18667,-0.08 0.4,-0.16 0.32,-0.1333 0.58667,-0.053 0.29333,0.053 0.34666,0.24 0.08,0.1867 -0.10666,0.4 -0.0533,0.08 -0.16,0.1333 -0.08,0.08 -0.16,0.1334 l -0.8,0.48 q -0.82667,0.5066 -1.30667,1.1733 -0.45333,0.6933 -0.66667,1.5467 -0.18666,0.56 -0.10666,1.0133 0.0533,0.1333 0.08,0.24 0.0267,0.1333 0.08,0.24 0.10666,0.1867 0.29333,0.2133 0.18667,0.053 0.4,-0.053 0.08,-0.053 0.16,-0.1067 0.08,-0.027 0.13333,-0.08 0.21334,-0.1866 0.37334,-0.4 0.18666,-0.2133 0.34666,-0.4533 0.34667,-0.4533 0.56,-0.96 0.24,-0.48 0.42667,-0.9867 0.34667,-0.9066 0.56,-1.6 0.21333,-0.6666 0.42667,-1.6 0.21333,-0.9333 0.4,-1.8133 0.18666,-0.9067 0.4,-1.8133 0.0533,-0.1334 0.0533,-0.2667 0,-0.16 0.0267,-0.2933 -0.0267,0 -0.0533,0 0,-0.027 -0.0533,-0.027 z"
             style="font-style:normal;font-variant:normal;font-weight:normal;font-stretch:normal;font-size:26.66666794px;font-family:'Sexy Beauty';-inkscape-font-specification:'Sexy Beauty';text-align:center;text-anchor:middle"
             id="path64019" />
          <path
             d="m 242.27799,1023.7949 q 0.16,-0.08 0.26666,-0.16 0.10667,-0.08 0.24,-0.1333 0.98667,-0.48 1.76,0.1333 0.21334,0.16 0.34667,0.3467 0.16,0.1866 0.21333,0.4266 0.18667,0.5867 0.21334,1.04 -0.0267,0.4534 -0.08,0.9067 -0.0267,0.4267 -0.16,0.88 -0.56,2.08 -1.84,3.92 -0.37334,0.56 -0.8,1.12 -0.4,0.5333 -0.85334,1.0667 -0.21333,0.2933 -0.50666,0.56 -0.26667,0.24 -0.56,0.5333 l -0.21334,0.16 q -0.85333,0.6933 -1.70666,0.56 -0.82667,-0.1067 -1.41334,-0.6133 -1.01333,-0.9334 -1.12,-2.2667 -0.24,-1.9467 0.58667,-3.9467 0.13333,-0.3733 0.32,-0.72 0.21333,-0.3733 0.42667,-0.7466 0.4,-0.6134 0.88,-1.12 0.50666,-0.5334 1.06666,-0.9867 0.69334,-0.5333 1.54667,-0.8267 0.66667,-0.2133 1.38667,-0.1333 z m -1.30667,1.52 q 0,0 -0.10667,-0.053 -0.13333,0.1333 -0.24,0.2666 -0.10666,0.1067 -0.24,0.24 -0.37333,0.4534 -0.66666,0.96 -0.29334,0.5067 -0.53334,1.04 -0.45333,1.0134 -0.64,2.0534 -0.16,1.0133 -0.21333,2.0533 0,0.4533 0.0533,0.88 0.08,0.4267 0.29334,0.8267 0.21333,0.4266 0.34666,0.4533 0.16,0.027 0.58667,-0.2667 0.61333,-0.4533 1.12,-1.0933 0.32,-0.4267 0.64,-0.8267 0.34667,-0.4266 0.66667,-0.88 0.64,-0.8533 1.01333,-1.68 0.34667,-0.6666 0.58667,-1.3333 0.26666,-0.6933 0.4,-1.3867 0.08,-0.4 0.08,-0.8 0.0267,-0.4 -0.08,-0.7733 -0.08,-0.2667 -0.21334,-0.4267 -0.21333,-0.2933 -0.61333,-0.08 -0.10667,0.053 -0.26667,0.2134 -0.64,0.48 -0.96,1.0933 -0.21333,0.3467 -0.37333,0.6933 -0.16,0.32 -0.34667,0.6667 l -0.32,0.5067 q -0.08,0.08 -0.18666,0.16 -0.08,0.053 -0.21334,0.027 -0.13333,-0.027 -0.21333,-0.1066 -0.0533,-0.1067 -0.08,-0.2134 -0.0267,-0.1333 -0.0533,-0.24 0,-0.1333 0.0533,-0.2666 0.0533,-0.3467 0.18667,-0.64 0.13333,-0.32 0.26666,-0.64 z"
             style="font-style:normal;font-variant:normal;font-weight:normal;font-stretch:normal;font-size:26.66666794px;font-family:'Sexy Beauty';-inkscape-font-specification:'Sexy Beauty';text-align:center;text-anchor:middle"
             id="path64021" />
          <path
             d="m 245.21215,1031.5816 q 0.0267,-0.4267 0.10667,-0.8 0.10666,-0.4 0.24,-0.7734 0.96,-2.8533 3.30666,-4.96 0.69334,-0.5866 1.44,-0.9866 0.77334,-0.4267 1.68,-0.6134 0.34667,-0.08 0.66667,-0.08 0.34667,-0.027 0.69333,0.1067 1.04,0.32 1.04,1.36 0.0267,1.12 -0.74666,2.1067 -0.37334,0.4533 -0.8,0.8266 -0.4,0.3734 -0.90667,0.72 -0.32,0.2134 -0.69333,0.1867 -0.18667,-0.027 -0.32,-0.1333 -0.10667,-0.1334 -0.08,-0.3467 0,-0.1867 0.08,-0.3467 0.08,-0.16 0.18666,-0.2933 0.21334,-0.2933 0.45334,-0.5067 0.26666,-0.2133 0.56,-0.4266 0.29333,-0.2134 0.50666,-0.4267 0.21334,-0.24 0.4,-0.5333 0.21334,-0.32 0.18667,-0.5867 -0.0533,-0.4267 -0.50667,-0.2933 -0.10666,0.027 -0.32,0.1333 -0.77333,0.4533 -1.41333,1.04 -0.64,0.56 -1.14667,1.2533 -0.21333,0.3467 -0.45333,0.6667 -0.21333,0.32 -0.42667,0.6667 -1.09333,1.8133 -1.49333,3.92 -0.0267,0.1866 -0.0533,0.3733 0,0.16 0.0267,0.32 0.0267,0.16 0.0533,0.32 0.0267,0.1333 0.10666,0.2667 0.10667,0.3466 0.61334,0.4 0.85333,0.053 1.54666,-0.4267 0.61334,-0.4 1.17334,-0.8267 0.58666,-0.4266 1.12,-0.9333 l 1.01333,-0.9867 q 0.29333,-0.3466 0.66667,-0.4533 0.4,-0.1067 0.42666,0.24 0,0.3467 -0.26666,0.6933 -0.21334,0.2934 -0.42667,0.56 -0.18667,0.24 -0.42667,0.5067 -0.61333,0.6133 -1.30666,1.1467 -0.66667,0.5333 -1.44,0.9866 -0.93334,0.56 -1.86667,0.5867 -0.93333,0.027 -1.84,-0.3467 -0.45333,-0.2133 -0.74667,-0.5333 -0.29333,-0.3467 -0.45333,-0.8 -0.13333,-0.3733 -0.16,-0.7467 -0.0267,-0.3733 -0.0533,-0.7733 z"
             style="font-style:normal;font-variant:normal;font-weight:normal;font-stretch:normal;font-size:26.66666794px;font-family:'Sexy Beauty';-inkscape-font-specification:'Sexy Beauty';text-align:center;text-anchor:middle"
             id="path64023" />
          <path
             d="m 257.1509,1034.0082 q 0.13333,0 0.26667,0 0.13333,0 0.24,0.1334 0.08,0.1333 0.0267,0.2666 -0.0267,0.1334 -0.10666,0.2934 0,0.053 -0.0533,0.053 -0.24,0.24 -0.58666,0.3733 -0.34667,0.1334 -0.72,0.1334 -0.34667,0.027 -0.66667,-0.1334 -0.32,-0.16 -0.50667,-0.5333 -0.13333,-0.24 -0.21333,-0.5067 -0.0533,-0.2666 0,-0.56 0,-2.2666 0.50667,-4.3733 0.50666,-2.1333 1.36,-4.1867 0.37333,-0.5866 0.90666,-0.6666 0.53334,-0.1067 0.98667,0.24 0.34667,0.2133 0.29333,0.6666 -0.0267,0.4534 -0.10666,0.7734 -0.16,0.48 -0.45334,1.3333 -0.29333,0.8267 -0.61333,1.7867 -0.32,0.96 -0.61333,1.92 -0.29334,0.96 -0.42667,1.68 -0.13333,0.72 -0.0533,1.12 0.10666,0.3733 0.53333,0.1866 z m 0.74667,-12.16 q 0.0267,-0.48 0.34666,-0.9066 0.34667,-0.4267 0.88,-0.5334 0.45334,-0.1333 0.8,0.08 0.34667,0.2134 0.32,0.6134 0.0533,0.9066 -0.66666,1.4666 -0.21334,0.1334 -0.42667,0.2134 -0.21333,0.053 -0.48,-0.027 -0.0533,0 -0.21333,-0.053 -0.50667,-0.16 -0.53334,-0.64 0.0267,-0.1067 -0.0267,-0.2134 z"
             style="font-style:normal;font-variant:normal;font-weight:normal;font-stretch:normal;font-size:26.66666794px;font-family:'Sexy Beauty';-inkscape-font-specification:'Sexy Beauty';text-align:center;text-anchor:middle"
             id="path64025" />
          <path
             d="m 265.17257,1023.7949 q 0.16,-0.08 0.26667,-0.16 0.10666,-0.08 0.24,-0.1333 0.98666,-0.48 1.76,0.1333 0.21333,0.16 0.34666,0.3467 0.16,0.1866 0.21334,0.4266 0.18666,0.5867 0.21333,1.04 -0.0267,0.4534 -0.08,0.9067 -0.0267,0.4267 -0.16,0.88 -0.56,2.08 -1.84,3.92 -0.37333,0.56 -0.8,1.12 -0.4,0.5333 -0.85333,1.0667 -0.21334,0.2933 -0.50667,0.56 -0.26667,0.24 -0.56,0.5333 l -0.21333,0.16 q -0.85334,0.6933 -1.70667,0.56 -0.82667,-0.1067 -1.41333,-0.6133 -1.01334,-0.9334 -1.12,-2.2667 -0.24,-1.9467 0.58666,-3.9467 0.13334,-0.3733 0.32,-0.72 0.21334,-0.3733 0.42667,-0.7466 0.4,-0.6134 0.88,-1.12 0.50667,-0.5334 1.06667,-0.9867 0.69333,-0.5333 1.54666,-0.8267 0.66667,-0.2133 1.38667,-0.1333 z m -1.30667,1.52 q 0,0 -0.10666,-0.053 -0.13334,0.1333 -0.24,0.2666 -0.10667,0.1067 -0.24,0.24 -0.37334,0.4534 -0.66667,0.96 -0.29333,0.5067 -0.53333,1.04 -0.45334,1.0134 -0.64,2.0534 -0.16,1.0133 -0.21334,2.0533 0,0.4533 0.0533,0.88 0.08,0.4267 0.29333,0.8267 0.21333,0.4266 0.34667,0.4533 0.16,0.027 0.58666,-0.2667 0.61334,-0.4533 1.12,-1.0933 0.32,-0.4267 0.64,-0.8267 0.34667,-0.4266 0.66667,-0.88 0.64,-0.8533 1.01333,-1.68 0.34667,-0.6666 0.58667,-1.3333 0.26667,-0.6933 0.4,-1.3867 0.08,-0.4 0.08,-0.8 0.0267,-0.4 -0.08,-0.7733 -0.08,-0.2667 -0.21333,-0.4267 -0.21334,-0.2933 -0.61334,-0.08 -0.10666,0.053 -0.26666,0.2134 -0.64,0.48 -0.96,1.0933 -0.21334,0.3467 -0.37334,0.6933 -0.16,0.32 -0.34666,0.6667 l -0.32,0.5067 q -0.08,0.08 -0.18667,0.16 -0.08,0.053 -0.21333,0.027 -0.13334,-0.027 -0.21334,-0.1066 -0.0533,-0.1067 -0.08,-0.2134 -0.0267,-0.1333 -0.0533,-0.24 0,-0.1333 0.0533,-0.2666 0.0533,-0.3467 0.18667,-0.64 0.13333,-0.32 0.26667,-0.64 z"
             style="font-style:normal;font-variant:normal;font-weight:normal;font-stretch:normal;font-size:26.66666794px;font-family:'Sexy Beauty';-inkscape-font-specification:'Sexy Beauty';text-align:center;text-anchor:middle"
             id="path64027" />
        </g>
        <g
           id="g25452-4-6-9"
           transform="translate(-117.76058,32.42197)">
          <path
             sodipodi:nodetypes="ccccc"
             inkscape:connector-curvature="0"
             id="path3045-9-9-9-8-8-0-7-5-2-57"
             d="m 163.67105,258.26231 h -2.43293 l -3.6494,4.86533 h 2.43295 z"
             style="fill:#f5f5f5;fill-opacity:1;stroke:none;stroke-width:0.05;stroke-linecap:butt;stroke-linejoin:miter;stroke-miterlimit:4;stroke-dasharray:none;stroke-opacity:1" />
          <path
             sodipodi:nodetypes="ccssc"
             inkscape:connector-curvature="0"
             id="path3045-9-9-9-8-8-0-7-8-7-9-4"
             d="m 160.022,263.20881 h -2.43328 v 0.632 c 0,0.811 2.56037,0.80098 2.43328,0 z"
             style="fill:#f5f5f5;fill-opacity:1;stroke:none;stroke-width:0.05;stroke-linecap:butt;stroke-linejoin:miter;stroke-miterlimit:4;stroke-dasharray:none;stroke-opacity:1" />
        </g>
        <g
           id="g25456-2-1-1"
           transform="translate(-117.98456,32.42197)">
          <path
             sodipodi:nodetypes="ccccc"
             inkscape:connector-curvature="0"
             id="path3045-9-9-9-8-8-0-1-2-2"
             d="m 166.46515,258.26231 h -2.43293 l -3.6494,4.86533 h 2.43295 z"
             style="fill:#ff0000;fill-opacity:1;stroke:none;stroke-width:0.05;stroke-linecap:butt;stroke-linejoin:miter;stroke-miterlimit:4;stroke-dasharray:none;stroke-opacity:1" />
          <path
             sodipodi:nodetypes="ccssc"
             inkscape:connector-curvature="0"
             id="path3045-9-9-9-8-8-0-7-8-9-3-7-2"
             d="m 162.81577,263.20881 h -2.43328 v 0.632 c 0,0.811 2.56037,0.80098 2.43328,0 z"
             style="fill:#ff0000;fill-opacity:1;stroke:none;stroke-width:0.05;stroke-linecap:butt;stroke-linejoin:miter;stroke-miterlimit:4;stroke-dasharray:none;stroke-opacity:1" />
        </g>
      </g>
      <g
         aria-label="Gestión de Inventario y Ventas"
         transform="matrix(0.71429048,0,0,0.71429048,-51.422832,-606.69608)"
         style="font-style:normal;font-variant:normal;font-weight:normal;font-stretch:normal;font-size:8.19764805px;line-height:1.25;font-family:Comfortaa;-inkscape-font-specification:Comfortaa;font-variant-ligatures:normal;font-variant-caps:normal;font-variant-numeric:normal;font-feature-settings:normal;text-align:end;letter-spacing:0.01px;word-spacing:0px;writing-mode:lr-tb;text-anchor:end;fill:#000000;fill-opacity:1;stroke:none"
         id="flowRoot25544-0-1">
        <path
           d="m 174.80667,1112.0917 q -0.66401,0 -1.24604,-0.2541 -0.57383,-0.2541 -1.01651,-0.705 -0.43447,-0.4591 -0.6804,-1.0493 -0.24593,-0.5984 -0.24593,-1.2788 0,-0.6722 0.23773,-1.2625 0.24593,-0.5984 0.6804,-1.0493 0.44268,-0.4508 1.01651,-0.705 0.58204,-0.2623 1.25424,-0.2623 0.59023,0 1.0739,0.1722 0.48366,0.1721 0.93453,0.5492 0.0738,0.057 0.082,0.1394 0.0164,0.074 -0.0164,0.1475 -0.0328,0.066 -0.0984,0.098 -0.0164,0.066 -0.082,0.098 -0.0656,0.033 -0.15576,0.025 -0.082,-0.01 -0.16395,-0.074 -0.31971,-0.2787 -0.6968,-0.4099 -0.37709,-0.1394 -0.87715,-0.1394 -0.53284,0 -1.00011,0.2132 -0.45907,0.2131 -0.81157,0.582 -0.3525,0.3689 -0.55744,0.8526 -0.19674,0.4836 -0.19674,1.0247 0,0.5574 0.19674,1.0411 0.20494,0.4836 0.55744,0.8525 0.3525,0.3689 0.81157,0.5821 0.46727,0.2049 1.00011,0.2049 0.45087,0 0.85256,-0.1475 0.40168,-0.1476 0.76238,-0.4263 0.0984,-0.082 0.20494,-0.066 0.11477,0.016 0.19674,0.098 0.082,0.082 0.082,0.2131 0,0.066 -0.0164,0.123 -0.0164,0.049 -0.0738,0.1065 -0.41808,0.3853 -0.93453,0.5493 -0.51646,0.1557 -1.0739,0.1557 z m 2.0986,-0.9345 -0.62302,-0.1312 v -1.6477 h -1.27883 q -0.13936,0 -0.22954,-0.082 -0.0902,-0.082 -0.0902,-0.2049 0,-0.123 0.0902,-0.1967 0.0902,-0.082 0.22954,-0.082 h 1.58214 q 0.13936,0 0.22954,0.09 0.0902,0.082 0.0902,0.2213 z"
           style="font-size:8.19764805px;text-align:end;text-anchor:end;fill:#ffffff"
           id="path64030" />
        <path
           d="m 179.89448,1112.0508 q -0.66401,0 -1.18047,-0.287 -0.50825,-0.2951 -0.80336,-0.8115 -0.28692,-0.5165 -0.28692,-1.1805 0,-0.6722 0.27052,-1.1805 0.27872,-0.5164 0.76238,-0.8115 0.48366,-0.2951 1.11488,-0.2951 0.62302,0 1.08209,0.2869 0.46727,0.2787 0.72139,0.7788 0.25413,0.5 0.25413,1.1394 0,0.1312 -0.082,0.2132 -0.082,0.074 -0.21313,0.074 h -3.484 v -0.5246 h 3.54958 l -0.3525,0.2541 q 0.008,-0.4754 -0.17215,-0.8525 -0.18035,-0.3771 -0.51645,-0.5903 -0.32791,-0.2131 -0.78698,-0.2131 -0.46726,0 -0.81976,0.2213 -0.3525,0.2214 -0.54925,0.6149 -0.18854,0.3852 -0.18854,0.8853 0,0.5001 0.21314,0.8854 0.22133,0.3852 0.59843,0.6066 0.37709,0.2213 0.86895,0.2213 0.29511,0 0.59023,-0.098 0.30331,-0.1065 0.48366,-0.2623 0.0902,-0.074 0.20494,-0.074 0.11477,-0.01 0.19674,0.057 0.10657,0.098 0.10657,0.2132 0.008,0.1147 -0.0902,0.1967 -0.27052,0.2295 -0.6886,0.3853 -0.41808,0.1476 -0.80337,0.1476 z"
           style="font-size:8.19764805px;text-align:end;text-anchor:end;fill:#ffffff"
           id="path64032" />
        <path
           d="m 184.46467,1112.0508 q -0.48366,0 -0.95912,-0.164 -0.47546,-0.164 -0.77058,-0.4919 -0.0902,-0.098 -0.0738,-0.2213 0.0164,-0.123 0.12297,-0.2131 0.11476,-0.082 0.23773,-0.066 0.12296,0.016 0.20494,0.1066 0.19674,0.2295 0.51645,0.3525 0.32791,0.1229 0.72139,0.1229 0.60663,0 0.87715,-0.2049 0.27052,-0.2132 0.27872,-0.5083 0,-0.2951 -0.27872,-0.4836 -0.27872,-0.1968 -0.91813,-0.3034 -0.82797,-0.1311 -1.21326,-0.459 -0.38529,-0.3279 -0.38529,-0.7788 0,-0.4181 0.22134,-0.6968 0.22134,-0.2787 0.59023,-0.4181 0.3689,-0.1393 0.81157,-0.1393 0.54924,0 0.94273,0.1885 0.40168,0.1886 0.64761,0.5083 0.082,0.1065 0.0656,0.2213 -0.0164,0.1148 -0.13116,0.1885 -0.0984,0.057 -0.22953,0.041 -0.12297,-0.025 -0.21314,-0.1229 -0.20494,-0.2378 -0.47547,-0.3443 -0.27052,-0.1148 -0.62302,-0.1148 -0.45087,0 -0.72139,0.1885 -0.27052,0.1804 -0.27052,0.4591 0,0.1886 0.0984,0.3279 0.10657,0.1394 0.3525,0.2459 0.25413,0.1066 0.705,0.1804 0.61482,0.098 0.96732,0.2951 0.36069,0.1886 0.50825,0.4509 0.15576,0.2541 0.15576,0.5574 0,0.3853 -0.22954,0.6804 -0.22133,0.2869 -0.62302,0.4509 -0.39348,0.164 -0.90994,0.164 z"
           style="font-size:8.19764805px;text-align:end;text-anchor:end;fill:#ffffff"
           id="path64034" />
        <path
           d="m 189.08226,1112.0098 q -0.43447,0 -0.77877,-0.205 -0.33611,-0.2049 -0.53285,-0.5574 -0.19674,-0.3607 -0.19674,-0.8198 v -4.0086 q 0,-0.1394 0.082,-0.2296 0.0902,-0.09 0.22954,-0.09 0.13936,0 0.22953,0.09 0.0902,0.09 0.0902,0.2296 v 4.0086 q 0,0.4181 0.24593,0.6886 0.24592,0.2623 0.63121,0.2623 h 0.22134 q 0.13116,0 0.21314,0.09 0.082,0.09 0.082,0.2296 0,0.1393 -0.0984,0.2295 -0.0984,0.082 -0.24593,0.082 z m -2.04121,-3.771 q -0.12296,0 -0.20494,-0.074 -0.082,-0.082 -0.082,-0.1968 0,-0.1229 0.082,-0.1967 0.082,-0.082 0.20494,-0.082 h 2.0904 q 0.12296,0 0.20494,0.082 0.082,0.074 0.082,0.1967 0,0.1148 -0.082,0.1968 -0.082,0.074 -0.20494,0.074 z"
           style="font-size:8.19764805px;text-align:end;text-anchor:end;fill:#ffffff"
           id="path64036" />
        <path
           d="m 191.08711,1112.0098 q -0.14756,0 -0.23773,-0.082 -0.082,-0.09 -0.082,-0.2377 v -3.8447 q 0,-0.1476 0.082,-0.2296 0.0902,-0.09 0.23773,-0.09 0.13936,0 0.22134,0.09 0.0902,0.082 0.0902,0.2296 v 3.8447 q 0,0.1475 -0.0902,0.2377 -0.082,0.082 -0.22134,0.082 z m -0.008,-5.3367 q -0.18035,0 -0.31151,-0.1312 -0.13116,-0.1311 -0.13116,-0.3197 0,-0.2049 0.13116,-0.3197 0.13936,-0.1229 0.31971,-0.1229 0.17215,0 0.30331,0.1229 0.13936,0.1148 0.13936,0.3197 0,0.1886 -0.13116,0.3197 -0.13116,0.1312 -0.31971,0.1312 z"
           style="font-size:8.19764805px;text-align:end;text-anchor:end;fill:#ffffff"
           id="path64038" />
        <path
           d="m 195.05709,1112.0508 q -0.65581,0 -1.17227,-0.2952 -0.51645,-0.2951 -0.81156,-0.8115 -0.29512,-0.5165 -0.29512,-1.1723 0,-0.664 0.29512,-1.1805 0.29511,-0.5164 0.81156,-0.8115 0.51646,-0.2951 1.17227,-0.2951 0.65581,0 1.16406,0.2951 0.51646,0.2951 0.81157,0.8115 0.29512,0.5165 0.30331,1.1805 0,0.6558 -0.30331,1.1723 -0.29511,0.5164 -0.81157,0.8115 -0.50825,0.2952 -1.16406,0.2952 z m 0,-0.5739 q 0.47546,0 0.85255,-0.2213 0.37709,-0.2214 0.59023,-0.6066 0.21314,-0.3853 0.21314,-0.8772 0,-0.4919 -0.21314,-0.8771 -0.21314,-0.3935 -0.59023,-0.6149 -0.37709,-0.2213 -0.85255,-0.2213 -0.47547,0 -0.85256,0.2213 -0.37709,0.2214 -0.59843,0.6149 -0.21314,0.3852 -0.21314,0.8771 0,0.4919 0.21314,0.8772 0.22134,0.3852 0.59843,0.6066 0.37709,0.2213 0.85256,0.2213 z m -0.0574,-4.6317 q -0.13116,0 -0.22953,-0.09 -0.0902,-0.098 -0.0902,-0.2296 0,-0.1311 0.0738,-0.2131 l 0.92634,-0.9263 q 0.0902,-0.09 0.22133,-0.09 0.13937,0 0.22954,0.098 0.0902,0.09 0.0902,0.2295 0,0.057 -0.0246,0.1148 -0.0164,0.057 -0.0656,0.098 l -0.91814,0.9264 q -0.082,0.082 -0.21314,0.082 z"
           style="font-size:8.19764805px;text-align:end;text-anchor:end;fill:#ffffff"
           id="path64040" />
        <path
           d="m 202.4264,1112.0098 q -0.13936,0 -0.22954,-0.09 -0.0902,-0.09 -0.0902,-0.2213 v -2.1314 q 0,-0.5083 -0.19674,-0.8362 -0.18855,-0.3279 -0.52465,-0.4919 -0.32791,-0.1639 -0.74599,-0.1639 -0.40168,0 -0.72959,0.1557 -0.31971,0.1558 -0.50825,0.4263 -0.18855,0.2705 -0.18855,0.6148 h -0.45087 q 0.0164,-0.5164 0.27872,-0.9181 0.26232,-0.4099 0.6968,-0.6394 0.43447,-0.2377 0.96732,-0.2377 0.58204,0 1.0411,0.2459 0.45907,0.2377 0.7214,0.705 0.27052,0.4673 0.27052,1.1395 v 2.1314 q 0,0.1311 -0.0902,0.2213 -0.0902,0.09 -0.22133,0.09 z m -3.52499,0 q -0.14756,0 -0.23773,-0.082 -0.082,-0.09 -0.082,-0.2295 v -3.8529 q 0,-0.1476 0.082,-0.2296 0.0902,-0.09 0.23773,-0.09 0.13936,0 0.22134,0.09 0.0902,0.082 0.0902,0.2296 v 3.8529 q 0,0.1393 -0.0902,0.2295 -0.082,0.082 -0.22134,0.082 z"
           style="font-size:8.19764805px;text-align:end;text-anchor:end;fill:#ffffff"
           id="path64042" />
        <path
           d="m 208.6004,1112.0508 q -0.64762,0 -1.16407,-0.2952 -0.51645,-0.3033 -0.81976,-0.8197 -0.29512,-0.5165 -0.29512,-1.1723 0,-0.6476 0.28692,-1.1641 0.29511,-0.5164 0.79517,-0.8115 0.50006,-0.3033 1.13128,-0.3033 0.54924,0 0.99191,0.2377 0.44267,0.2295 0.7132,0.6148 v -2.4101 q 0,-0.1475 0.0902,-0.2295 0.0902,-0.09 0.22954,-0.09 0.13936,0 0.22953,0.09 0.0902,0.082 0.0902,0.2295 v 3.8693 q -0.0164,0.6394 -0.3197,1.1559 -0.29512,0.5082 -0.81157,0.8033 -0.50826,0.2952 -1.14767,0.2952 z m 0,-0.5739 q 0.47546,0 0.84436,-0.2213 0.37709,-0.2296 0.59023,-0.6148 0.22133,-0.3853 0.22133,-0.8772 0,-0.4837 -0.22133,-0.8689 -0.21314,-0.3935 -0.59023,-0.6149 -0.3689,-0.2213 -0.84436,-0.2213 -0.46727,0 -0.84436,0.2213 -0.37709,0.2214 -0.59843,0.6149 -0.22134,0.3852 -0.22134,0.8689 0,0.4919 0.22134,0.8772 0.22134,0.3852 0.59843,0.6148 0.37709,0.2213 0.84436,0.2213 z"
           style="font-size:8.19764805px;text-align:end;text-anchor:end;fill:#ffffff"
           id="path64044" />
        <path
           d="m 214.39819,1112.0508 q -0.66401,0 -1.18046,-0.287 -0.50825,-0.2951 -0.80337,-0.8115 -0.28692,-0.5165 -0.28692,-1.1805 0,-0.6722 0.27053,-1.1805 0.27872,-0.5164 0.76238,-0.8115 0.48366,-0.2951 1.11488,-0.2951 0.62302,0 1.08209,0.2869 0.46726,0.2787 0.72139,0.7788 0.25413,0.5 0.25413,1.1394 0,0.1312 -0.082,0.2132 -0.082,0.074 -0.21314,0.074 h -3.484 v -0.5246 h 3.54958 l -0.3525,0.2541 q 0.008,-0.4754 -0.17215,-0.8525 -0.18035,-0.3771 -0.51645,-0.5903 -0.3279,-0.2131 -0.78697,-0.2131 -0.46727,0 -0.81977,0.2213 -0.3525,0.2214 -0.54924,0.6149 -0.18855,0.3852 -0.18855,0.8853 0,0.5001 0.21314,0.8854 0.22134,0.3852 0.59843,0.6066 0.37709,0.2213 0.86895,0.2213 0.29512,0 0.59023,-0.098 0.30332,-0.1065 0.48366,-0.2623 0.0902,-0.074 0.20494,-0.074 0.11477,-0.01 0.19675,0.057 0.10657,0.098 0.10657,0.2132 0.008,0.1147 -0.0902,0.1967 -0.27052,0.2295 -0.6886,0.3853 -0.41808,0.1476 -0.80337,0.1476 z"
           style="font-size:8.19764805px;text-align:end;text-anchor:end;fill:#ffffff"
           id="path64046" />
        <path
           d="m 220.21598,1112.0098 q -0.13936,0 -0.22953,-0.09 -0.0902,-0.09 -0.0902,-0.2295 v -5.763 q 0,-0.1394 0.0902,-0.2295 0.0902,-0.09 0.22953,-0.09 0.13936,0 0.22953,0.09 0.0902,0.09 0.0902,0.2295 v 5.763 q 0,0.1393 -0.0902,0.2295 -0.0902,0.09 -0.22953,0.09 z"
           style="font-size:8.19764805px;text-align:end;text-anchor:end;fill:#ffffff"
           id="path64048" />
        <path
           d="m 225.94256,1112.0098 q -0.13936,0 -0.22954,-0.09 -0.0902,-0.09 -0.0902,-0.2213 v -2.1314 q 0,-0.5083 -0.19674,-0.8362 -0.18855,-0.3279 -0.52465,-0.4919 -0.32791,-0.1639 -0.74599,-0.1639 -0.40168,0 -0.72959,0.1557 -0.31971,0.1558 -0.50825,0.4263 -0.18855,0.2705 -0.18855,0.6148 h -0.45087 q 0.0164,-0.5164 0.27872,-0.9181 0.26232,-0.4099 0.6968,-0.6394 0.43447,-0.2377 0.96732,-0.2377 0.58203,0 1.0411,0.2459 0.45907,0.2377 0.7214,0.705 0.27052,0.4673 0.27052,1.1395 v 2.1314 q 0,0.1311 -0.0902,0.2213 -0.0902,0.09 -0.22133,0.09 z m -3.52499,0 q -0.14756,0 -0.23773,-0.082 -0.082,-0.09 -0.082,-0.2295 v -3.8529 q 0,-0.1476 0.082,-0.2296 0.0902,-0.09 0.23773,-0.09 0.13936,0 0.22134,0.09 0.0902,0.082 0.0902,0.2296 v 3.8529 q 0,0.1393 -0.0902,0.2295 -0.082,0.082 -0.22134,0.082 z"
           style="font-size:8.19764805px;text-align:end;text-anchor:end;fill:#ffffff"
           id="path64050" />
        <path
           d="m 228.95648,1112.0098 q -0.19674,0 -0.29511,-0.2132 l -1.81988,-3.8611 q -0.0492,-0.1065 -0.008,-0.2131 0.041,-0.1066 0.16396,-0.164 0.11476,-0.057 0.22133,-0.016 0.10657,0.041 0.16396,0.1476 l 1.7461,3.7791 h -0.33611 l 1.72151,-3.7791 q 0.0492,-0.1148 0.16395,-0.1476 0.12297,-0.041 0.23773,0.01 0.11477,0.057 0.15576,0.1722 0.041,0.1066 -0.008,0.2049 l -1.79528,3.8693 q -0.0984,0.2132 -0.31152,0.2132 z"
           style="font-size:8.19764805px;text-align:end;text-anchor:end;fill:#ffffff"
           id="path64052" />
        <path
           d="m 233.83755,1112.0508 q -0.66401,0 -1.18046,-0.287 -0.50825,-0.2951 -0.80337,-0.8115 -0.28692,-0.5165 -0.28692,-1.1805 0,-0.6722 0.27053,-1.1805 0.27872,-0.5164 0.76238,-0.8115 0.48366,-0.2951 1.11488,-0.2951 0.62302,0 1.08209,0.2869 0.46726,0.2787 0.72139,0.7788 0.25413,0.5 0.25413,1.1394 0,0.1312 -0.082,0.2132 -0.082,0.074 -0.21314,0.074 h -3.484 v -0.5246 h 3.54958 l -0.35249,0.2541 q 0.008,-0.4754 -0.17216,-0.8525 -0.18034,-0.3771 -0.51645,-0.5903 -0.3279,-0.2131 -0.78697,-0.2131 -0.46727,0 -0.81977,0.2213 -0.35249,0.2214 -0.54924,0.6149 -0.18854,0.3852 -0.18854,0.8853 0,0.5001 0.21313,0.8854 0.22134,0.3852 0.59843,0.6066 0.37709,0.2213 0.86895,0.2213 0.29512,0 0.59023,-0.098 0.30332,-0.1065 0.48367,-0.2623 0.0902,-0.074 0.20494,-0.074 0.11476,-0.01 0.19674,0.057 0.10657,0.098 0.10657,0.2132 0.008,0.1147 -0.0902,0.1967 -0.27053,0.2295 -0.68861,0.3853 -0.41808,0.1476 -0.80337,0.1476 z"
           style="font-size:8.19764805px;text-align:end;text-anchor:end;fill:#ffffff"
           id="path64054" />
        <path
           d="m 240.68669,1112.0098 q -0.13936,0 -0.22953,-0.09 -0.0902,-0.09 -0.0902,-0.2213 v -2.1314 q 0,-0.5083 -0.19675,-0.8362 -0.18854,-0.3279 -0.52465,-0.4919 -0.3279,-0.1639 -0.74598,-0.1639 -0.40169,0 -0.72959,0.1557 -0.31971,0.1558 -0.50826,0.4263 -0.18854,0.2705 -0.18854,0.6148 h -0.45087 q 0.0164,-0.5164 0.27872,-0.9181 0.26232,-0.4099 0.6968,-0.6394 0.43447,-0.2377 0.96732,-0.2377 0.58203,0 1.0411,0.2459 0.45907,0.2377 0.72139,0.705 0.27052,0.4673 0.27052,1.1395 v 2.1314 q 0,0.1311 -0.0902,0.2213 -0.0902,0.09 -0.22134,0.09 z m -3.52498,0 q -0.14756,0 -0.23774,-0.082 -0.082,-0.09 -0.082,-0.2295 v -3.8529 q 0,-0.1476 0.082,-0.2296 0.0902,-0.09 0.23774,-0.09 0.13936,0 0.22133,0.09 0.0902,0.082 0.0902,0.2296 v 3.8529 q 0,0.1393 -0.0902,0.2295 -0.082,0.082 -0.22133,0.082 z"
           style="font-size:8.19764805px;text-align:end;text-anchor:end;fill:#ffffff"
           id="path64056" />
        <path
           d="m 244.16213,1112.0098 q -0.43448,0 -0.77878,-0.205 -0.3361,-0.2049 -0.53285,-0.5574 -0.19674,-0.3607 -0.19674,-0.8198 v -4.0086 q 0,-0.1394 0.082,-0.2296 0.0902,-0.09 0.22953,-0.09 0.13936,0 0.22954,0.09 0.0902,0.09 0.0902,0.2296 v 4.0086 q 0,0.4181 0.24593,0.6886 0.24593,0.2623 0.63122,0.2623 h 0.22133 q 0.13117,0 0.21314,0.09 0.082,0.09 0.082,0.2296 0,0.1393 -0.0984,0.2295 -0.0984,0.082 -0.24593,0.082 z m -2.04122,-3.771 q -0.12296,0 -0.20494,-0.074 -0.082,-0.082 -0.082,-0.1968 0,-0.1229 0.082,-0.1967 0.082,-0.082 0.20494,-0.082 h 2.0904 q 0.12297,0 0.20494,0.082 0.082,0.074 0.082,0.1967 0,0.1148 -0.082,0.1968 -0.082,0.074 -0.20494,0.074 z"
           style="font-size:8.19764805px;text-align:end;text-anchor:end;fill:#ffffff"
           id="path64058" />
        <path
           d="m 247.69173,1112.0508 q -0.63122,0 -1.13128,-0.2952 -0.50005,-0.3033 -0.79517,-0.8197 -0.28691,-0.5165 -0.28691,-1.1641 0,-0.6558 0.29511,-1.1723 0.30331,-0.5164 0.81977,-0.8115 0.51645,-0.3033 1.16406,-0.3033 0.64762,0 1.15587,0.3033 0.51645,0.2951 0.81157,0.8115 0.30331,0.5165 0.31151,1.1723 l -0.25413,0.1967 q 0,0.5903 -0.27872,1.0657 -0.27052,0.4673 -0.74599,0.746 -0.46726,0.2706 -1.06569,0.2706 z m 0.0656,-0.5739 q 0.47546,0 0.84436,-0.2213 0.37709,-0.2214 0.59023,-0.6066 0.22134,-0.3935 0.22134,-0.8772 0,-0.4919 -0.22134,-0.8771 -0.21314,-0.3853 -0.59023,-0.6067 -0.3689,-0.2295 -0.84436,-0.2295 -0.46726,0 -0.84436,0.2295 -0.37709,0.2214 -0.59842,0.6067 -0.22134,0.3852 -0.22134,0.8771 0,0.4837 0.22134,0.8772 0.22133,0.3852 0.59842,0.6066 0.3771,0.2213 0.84436,0.2213 z m 1.95924,0.5329 q -0.13936,0 -0.22954,-0.082 -0.0902,-0.09 -0.0902,-0.2295 v -1.4018 l 0.15576,-0.6477 0.48366,0.123 v 1.9265 q 0,0.1393 -0.0902,0.2295 -0.0902,0.082 -0.22953,0.082 z"
           style="font-size:8.19764805px;text-align:end;text-anchor:end;fill:#ffffff"
           id="path64060" />
        <path
           d="m 251.54426,1109.2472 q 0.0246,-0.5083 0.26232,-0.91 0.24593,-0.4017 0.63122,-0.6312 0.39349,-0.2295 0.86895,-0.2295 0.37709,0 0.58203,0.1065 0.20494,0.1066 0.15576,0.3115 -0.0328,0.123 -0.11477,0.164 -0.0738,0.041 -0.18854,0.033 -0.10657,-0.01 -0.24593,-0.016 -0.45907,-0.041 -0.81977,0.098 -0.3525,0.1311 -0.56564,0.4098 -0.20494,0.2788 -0.20494,0.6641 z m 0.0492,2.7626 q -0.14756,0 -0.22953,-0.082 -0.082,-0.082 -0.082,-0.2295 v -3.8611 q 0,-0.1476 0.082,-0.2296 0.082,-0.082 0.22953,-0.082 0.14756,0 0.22954,0.082 0.082,0.082 0.082,0.2296 v 3.8611 q 0,0.1475 -0.082,0.2295 -0.082,0.082 -0.22954,0.082 z"
           style="font-size:8.19764805px;text-align:end;text-anchor:end;fill:#ffffff"
           id="path64062" />
        <path
           d="m 255.50539,1112.0098 q -0.14756,0 -0.23773,-0.082 -0.082,-0.09 -0.082,-0.2377 v -3.8447 q 0,-0.1476 0.082,-0.2296 0.0902,-0.09 0.23773,-0.09 0.13936,0 0.22134,0.09 0.0902,0.082 0.0902,0.2296 v 3.8447 q 0,0.1475 -0.0902,0.2377 -0.082,0.082 -0.22134,0.082 z m -0.008,-5.3367 q -0.18034,0 -0.31151,-0.1312 -0.13116,-0.1311 -0.13116,-0.3197 0,-0.2049 0.13116,-0.3197 0.13936,-0.1229 0.31971,-0.1229 0.17215,0 0.30332,0.1229 0.13936,0.1148 0.13936,0.3197 0,0.1886 -0.13117,0.3197 -0.13116,0.1312 -0.31971,0.1312 z"
           style="font-size:8.19764805px;text-align:end;text-anchor:end;fill:#ffffff"
           id="path64064" />
        <path
           d="m 259.47537,1112.0508 q -0.65581,0 -1.17227,-0.2952 -0.51645,-0.2951 -0.81156,-0.8115 -0.29512,-0.5165 -0.29512,-1.1723 0,-0.664 0.29512,-1.1805 0.29511,-0.5164 0.81156,-0.8115 0.51646,-0.2951 1.17227,-0.2951 0.65581,0 1.16406,0.2951 0.51645,0.2951 0.81157,0.8115 0.29512,0.5165 0.30331,1.1805 0,0.6558 -0.30331,1.1723 -0.29512,0.5164 -0.81157,0.8115 -0.50825,0.2952 -1.16406,0.2952 z m 0,-0.5739 q 0.47546,0 0.85255,-0.2213 0.37709,-0.2214 0.59023,-0.6066 0.21314,-0.3853 0.21314,-0.8772 0,-0.4919 -0.21314,-0.8771 -0.21314,-0.3935 -0.59023,-0.6149 -0.37709,-0.2213 -0.85255,-0.2213 -0.47547,0 -0.85256,0.2213 -0.37709,0.2214 -0.59843,0.6149 -0.21314,0.3852 -0.21314,0.8771 0,0.4919 0.21314,0.8772 0.22134,0.3852 0.59843,0.6066 0.37709,0.2213 0.85256,0.2213 z"
           style="font-size:8.19764805px;text-align:end;text-anchor:end;fill:#ffffff"
           id="path64066" />
        <path
           d="m 266.18222,1113.9608 q -0.0656,0 -0.14756,-0.033 -0.27872,-0.123 -0.15576,-0.3935 l 2.64784,-5.8367 q 0.12297,-0.2623 0.39349,-0.1476 0.27872,0.1148 0.15576,0.3853 l -2.65604,5.8368 q -0.082,0.1885 -0.23773,0.1885 z m 0.90994,-2.0904 q -0.12297,0.057 -0.22954,0.025 -0.10657,-0.041 -0.17215,-0.164 l -1.82807,-3.7873 q -0.0574,-0.1229 -0.0164,-0.2295 0.041,-0.1066 0.16395,-0.164 0.12297,-0.057 0.22954,-0.016 0.10657,0.033 0.16395,0.1558 l 1.79529,3.7873 q 0.0656,0.123 0.041,0.2296 -0.0246,0.1065 -0.14755,0.1639 z"
           style="font-size:8.19764805px;text-align:end;text-anchor:end;fill:#ffffff"
           id="path64068" />
        <path
           d="m 274.53756,1112.0098 q -0.20494,0 -0.29512,-0.205 l -2.4347,-5.6973 q -0.0902,-0.2296 -0.0164,-0.3607 0.082,-0.1394 0.27872,-0.1394 0.20494,0 0.29511,0.2049 l 2.26255,5.4105 h -0.18035 l 2.25436,-5.3941 q 0.0492,-0.1229 0.12296,-0.1721 0.0738,-0.049 0.19675,-0.049 0.18854,0 0.25412,0.1476 0.0656,0.1393 -0.008,0.3197 l -2.4429,5.7301 q -0.0492,0.1148 -0.12297,0.164 -0.0738,0.041 -0.16395,0.041 z"
           style="font-size:8.19764805px;text-align:end;text-anchor:end;fill:#ffffff"
           id="path64070" />
        <path
           d="m 279.35484,1112.0508 q -0.66401,0 -1.18046,-0.287 -0.50825,-0.2951 -0.80337,-0.8115 -0.28692,-0.5165 -0.28692,-1.1805 0,-0.6722 0.27053,-1.1805 0.27872,-0.5164 0.76238,-0.8115 0.48366,-0.2951 1.11488,-0.2951 0.62302,0 1.08209,0.2869 0.46726,0.2787 0.72139,0.7788 0.25413,0.5 0.25413,1.1394 0,0.1312 -0.082,0.2132 -0.082,0.074 -0.21314,0.074 h -3.484 v -0.5246 h 3.54958 l -0.3525,0.2541 q 0.008,-0.4754 -0.17215,-0.8525 -0.18035,-0.3771 -0.51645,-0.5903 -0.3279,-0.2131 -0.78697,-0.2131 -0.46727,0 -0.81977,0.2213 -0.3525,0.2214 -0.54924,0.6149 -0.18855,0.3852 -0.18855,0.8853 0,0.5001 0.21314,0.8854 0.22134,0.3852 0.59843,0.6066 0.37709,0.2213 0.86895,0.2213 0.29512,0 0.59023,-0.098 0.30332,-0.1065 0.48366,-0.2623 0.0902,-0.074 0.20494,-0.074 0.11477,-0.01 0.19675,0.057 0.10657,0.098 0.10657,0.2132 0.008,0.1147 -0.0902,0.1967 -0.27052,0.2295 -0.6886,0.3853 -0.41808,0.1476 -0.80337,0.1476 z"
           style="font-size:8.19764805px;text-align:end;text-anchor:end;fill:#ffffff"
           id="path64072" />
        <path
           d="m 286.20398,1112.0098 q -0.13936,0 -0.22953,-0.09 -0.0902,-0.09 -0.0902,-0.2213 v -2.1314 q 0,-0.5083 -0.19674,-0.8362 -0.18855,-0.3279 -0.52465,-0.4919 -0.32791,-0.1639 -0.74599,-0.1639 -0.40168,0 -0.72959,0.1557 -0.3197,0.1558 -0.50825,0.4263 -0.18855,0.2705 -0.18855,0.6148 h -0.45087 q 0.0164,-0.5164 0.27872,-0.9181 0.26233,-0.4099 0.6968,-0.6394 0.43448,-0.2377 0.96733,-0.2377 0.58203,0 1.0411,0.2459 0.45907,0.2377 0.72139,0.705 0.27052,0.4673 0.27052,1.1395 v 2.1314 q 0,0.1311 -0.0902,0.2213 -0.0902,0.09 -0.22134,0.09 z m -3.52499,0 q -0.14755,0 -0.23773,-0.082 -0.082,-0.09 -0.082,-0.2295 v -3.8529 q 0,-0.1476 0.082,-0.2296 0.0902,-0.09 0.23773,-0.09 0.13936,0 0.22134,0.09 0.0902,0.082 0.0902,0.2296 v 3.8529 q 0,0.1393 -0.0902,0.2295 -0.082,0.082 -0.22134,0.082 z"
           style="font-size:8.19764805px;text-align:end;text-anchor:end;fill:#ffffff"
           id="path64074" />
        <path
           d="m 289.67941,1112.0098 q -0.43448,0 -0.77878,-0.205 -0.3361,-0.2049 -0.53285,-0.5574 -0.19674,-0.3607 -0.19674,-0.8198 v -4.0086 q 0,-0.1394 0.082,-0.2296 0.0902,-0.09 0.22953,-0.09 0.13936,0 0.22954,0.09 0.0902,0.09 0.0902,0.2296 v 4.0086 q 0,0.4181 0.24593,0.6886 0.24593,0.2623 0.63122,0.2623 h 0.22133 q 0.13117,0 0.21314,0.09 0.082,0.09 0.082,0.2296 0,0.1393 -0.0984,0.2295 -0.0984,0.082 -0.24593,0.082 z m -2.04122,-3.771 q -0.12296,0 -0.20494,-0.074 -0.082,-0.082 -0.082,-0.1968 0,-0.1229 0.082,-0.1967 0.082,-0.082 0.20494,-0.082 h 2.0904 q 0.12297,0 0.20495,0.082 0.082,0.074 0.082,0.1967 0,0.1148 -0.082,0.1968 -0.082,0.074 -0.20495,0.074 z"
           style="font-size:8.19764805px;text-align:end;text-anchor:end;fill:#ffffff"
           id="path64076" />
        <path
           d="m 293.20902,1112.0508 q -0.63122,0 -1.13128,-0.2952 -0.50005,-0.3033 -0.79517,-0.8197 -0.28692,-0.5165 -0.28692,-1.1641 0,-0.6558 0.29512,-1.1723 0.30331,-0.5164 0.81976,-0.8115 0.51646,-0.3033 1.16407,-0.3033 0.64761,0 1.15587,0.3033 0.51645,0.2951 0.81156,0.8115 0.30332,0.5165 0.31152,1.1723 l -0.25413,0.1967 q 0,0.5903 -0.27872,1.0657 -0.27052,0.4673 -0.74599,0.746 -0.46726,0.2706 -1.06569,0.2706 z m 0.0656,-0.5739 q 0.47546,0 0.84436,-0.2213 0.37709,-0.2214 0.59023,-0.6066 0.22133,-0.3935 0.22133,-0.8772 0,-0.4919 -0.22133,-0.8771 -0.21314,-0.3853 -0.59023,-0.6067 -0.3689,-0.2295 -0.84436,-0.2295 -0.46727,0 -0.84436,0.2295 -0.37709,0.2214 -0.59843,0.6067 -0.22133,0.3852 -0.22133,0.8771 0,0.4837 0.22133,0.8772 0.22134,0.3852 0.59843,0.6066 0.37709,0.2213 0.84436,0.2213 z m 1.95924,0.5329 q -0.13936,0 -0.22954,-0.082 -0.0902,-0.09 -0.0902,-0.2295 v -1.4018 l 0.15575,-0.6477 0.48367,0.123 v 1.9265 q 0,0.1393 -0.0902,0.2295 -0.0902,0.082 -0.22953,0.082 z"
           style="font-size:8.19764805px;text-align:end;text-anchor:end;fill:#ffffff"
           id="path64078" />
        <path
           d="m 298.36496,1112.0508 q -0.48366,0 -0.95912,-0.164 -0.47547,-0.164 -0.77058,-0.4919 -0.0902,-0.098 -0.0738,-0.2213 0.0164,-0.123 0.12296,-0.2131 0.11477,-0.082 0.23774,-0.066 0.12296,0.016 0.20494,0.1066 0.19674,0.2295 0.51645,0.3525 0.32791,0.1229 0.72139,0.1229 0.60663,0 0.87715,-0.2049 0.27052,-0.2132 0.27872,-0.5083 0,-0.2951 -0.27872,-0.4836 -0.27872,-0.1968 -0.91814,-0.3034 -0.82796,-0.1311 -1.21325,-0.459 -0.38529,-0.3279 -0.38529,-0.7788 0,-0.4181 0.22134,-0.6968 0.22134,-0.2787 0.59023,-0.4181 0.36889,-0.1393 0.81157,-0.1393 0.54924,0 0.94273,0.1885 0.40168,0.1886 0.64761,0.5083 0.082,0.1065 0.0656,0.2213 -0.0164,0.1148 -0.13116,0.1885 -0.0984,0.057 -0.22953,0.041 -0.12297,-0.025 -0.21314,-0.1229 -0.20494,-0.2378 -0.47547,-0.3443 -0.27052,-0.1148 -0.62302,-0.1148 -0.45087,0 -0.72139,0.1885 -0.27052,0.1804 -0.27052,0.4591 0,0.1886 0.0984,0.3279 0.10657,0.1394 0.3525,0.2459 0.25412,0.1066 0.70499,0.1804 0.61483,0.098 0.96733,0.2951 0.36069,0.1886 0.50825,0.4509 0.15576,0.2541 0.15576,0.5574 0,0.3853 -0.22954,0.6804 -0.22133,0.2869 -0.62302,0.4509 -0.39349,0.164 -0.90994,0.164 z"
           style="font-size:8.19764805px;text-align:end;text-anchor:end;fill:#ffffff"
           id="path64080" />
      </g>
    </g>
  </g>
</svg>
